# Blender v3.6.23 OBJ File: ''
# www.blender.org
o skateboard_griptape
v 0.131542 0.117446 -0.733187
v 0.196401 0.122098 -0.766421
v 0.130629 0.122092 -0.766427
v 0.198016 0.117448 -0.733184
v 0.262385 0.122105 -0.766415
v 0.257227 0.129087 -0.801478
v 0.192788 0.129043 -0.801519
v 0.128422 0.129003 -0.801554
v 0.134451 0.110357 -0.263897
v 0.200155 0.119514 -0.464726
v 0.134071 0.109630 -0.464670
v 0.134658 0.110714 0.003838
v 0.200417 0.121578 -0.263923
v 0.200559 0.122643 0.003838
v 0.265801 0.136760 -0.263959
v 0.265801 0.132887 -0.464803
v 0.133139 0.107132 -0.613017
v 0.199258 0.111533 -0.642228
v 0.132765 0.108960 -0.642149
v 0.199515 0.111827 -0.613147
v 0.265801 0.115015 -0.642336
v 0.265801 0.113650 -0.674165
v 0.198987 0.112517 -0.674132
v 0.132372 0.111679 -0.674108
v 0.133615 0.108087 -0.577395
v 0.199704 0.113619 -0.592298
v 0.133414 0.107135 -0.592156
v 0.199842 0.115910 -0.577517
v 0.265801 0.122391 -0.592491
v 0.265801 0.118179 -0.613325
v 0.199970 0.117739 -0.554098
v 0.133802 0.108919 -0.554008
v 0.265801 0.129673 -0.554221
v 0.265801 0.126494 -0.577684
v 0.198691 0.114406 -0.703554
v 0.132014 0.114300 -0.703555
v 0.265678 0.114550 -0.703555
v 0.264814 0.117450 -0.733181
v 0.185972 0.138835 -0.836186
v 0.123968 0.138720 -0.836292
v 0.247985 0.138960 -0.836062
v 0.232878 0.151461 -0.870881
v 0.174659 0.151276 -0.871096
v 0.116439 0.151107 -0.871286
v 0.158047 0.165565 -0.906560
v 0.105596 0.165478 -0.906941
v 0.209833 0.165839 -0.906547
v 0.176036 0.180238 -0.940254
v 0.137404 0.179231 -0.938477
v 0.093455 0.179628 -0.939787
v 0.117887 0.188602 -0.959743
v 0.083915 0.191424 -0.966245
v 0.130770 0.192577 -0.968338
v 0.082439 0.200963 -0.987140
v -0.000000 0.179954 -0.941032
v 0.042444 0.192755 -0.969402
v -0.000000 0.192935 -0.969891
v 0.047106 0.179932 -0.940824
v 0.039314 0.204344 -0.994689
v -0.000000 0.204827 -0.995767
v -0.000000 0.150921 -0.871477
v 0.052845 0.165407 -0.907241
v -0.000000 0.165365 -0.907337
v 0.058219 0.150975 -0.871424
v -0.000000 0.128960 -0.801586
v 0.061980 0.138632 -0.836365
v -0.000000 0.138595 -0.836391
v 0.064175 0.128973 -0.801578
v -0.000000 0.111284 -0.674099
v 0.065852 0.114255 -0.703555
v -0.000000 0.114249 -0.703556
v 0.066087 0.111334 -0.674099
v 0.065609 0.117444 -0.733189
v -0.000000 0.117444 -0.733189
v -0.000000 0.104979 -0.464644
v 0.067070 0.105287 -0.553971
v -0.000000 0.104768 -0.553966
v 0.067255 0.105560 -0.464647
v 0.066942 0.104866 -0.577346
v -0.000000 0.104405 -0.577339
v 0.066803 0.104465 -0.592099
v -0.000000 0.104083 -0.592092
v 0.066614 0.105198 -0.612965
v -0.000000 0.104922 -0.612958
v 0.066357 0.107900 -0.642118
v -0.000000 0.107748 -0.642114
v -0.000000 0.105076 -0.263884
v -0.000000 0.105100 0.003838
v 0.067516 0.105736 -0.263886
v 0.067658 0.105802 0.003838
v 0.065209 0.122088 -0.766431
v -0.000000 0.122086 -0.766432
v -0.131543 0.117446 -0.733187
v -0.196402 0.122098 -0.766421
v -0.198016 0.117448 -0.733184
v -0.130629 0.122092 -0.766427
v -0.192789 0.129043 -0.801519
v -0.257228 0.129087 -0.801478
v -0.262385 0.122105 -0.766414
v -0.264815 0.117450 -0.733181
v -0.200156 0.119514 -0.464726
v -0.134451 0.110357 -0.263897
v -0.134071 0.109630 -0.464669
v -0.265802 0.132887 -0.464802
v -0.200417 0.121578 -0.263923
v -0.265801 0.136760 -0.263959
v -0.200559 0.122643 0.003838
v -0.134658 0.110714 0.003838
v -0.133140 0.107132 -0.613017
v -0.199258 0.111533 -0.642228
v -0.199515 0.111827 -0.613147
v -0.132766 0.108960 -0.642149
v -0.198988 0.112517 -0.674132
v -0.265802 0.113650 -0.674165
v -0.265802 0.115015 -0.642336
v -0.265802 0.118179 -0.613324
v -0.133616 0.108087 -0.577395
v -0.199705 0.113619 -0.592298
v -0.199843 0.115910 -0.577517
v -0.133415 0.107135 -0.592156
v -0.265802 0.122391 -0.592490
v -0.265802 0.126494 -0.577683
v -0.199971 0.117739 -0.554098
v -0.133802 0.108919 -0.554007
v -0.265802 0.129673 -0.554221
v -0.132372 0.111679 -0.674108
v -0.198691 0.114406 -0.703554
v -0.132014 0.114300 -0.703555
v -0.265678 0.114550 -0.703555
v -0.128422 0.129003 -0.801554
v -0.185973 0.138835 -0.836186
v -0.123969 0.138720 -0.836292
v -0.174659 0.151276 -0.871096
v -0.232879 0.151461 -0.870880
v -0.247986 0.138960 -0.836062
v -0.116440 0.151107 -0.871286
v -0.158047 0.165565 -0.906560
v -0.105597 0.165478 -0.906940
v -0.137404 0.179231 -0.938477
v -0.176037 0.180238 -0.940254
v -0.209834 0.165839 -0.906547
v -0.093456 0.179628 -0.939787
v -0.117888 0.188602 -0.959743
v -0.082440 0.200963 -0.987140
v -0.083916 0.191424 -0.966245
v -0.130771 0.192577 -0.968338
v -0.042445 0.192755 -0.969402
v -0.047107 0.179932 -0.940824
v -0.039315 0.204344 -0.994689
v -0.052846 0.165407 -0.907241
v -0.058220 0.150975 -0.871424
v -0.061980 0.138632 -0.836365
v -0.064175 0.128973 -0.801578
v -0.065852 0.114255 -0.703555
v -0.066087 0.111334 -0.674099
v -0.065609 0.117444 -0.733189
v -0.067070 0.105287 -0.553971
v -0.067255 0.105560 -0.464647
v -0.066942 0.104866 -0.577346
v -0.066804 0.104465 -0.592099
v -0.066615 0.105198 -0.612965
v -0.066358 0.107900 -0.642118
v -0.067516 0.105736 -0.263886
v -0.067658 0.105802 0.003838
v -0.065209 0.122088 -0.766431
v 0.131543 0.117446 0.740863
v 0.196402 0.122099 0.774098
v 0.198016 0.117448 0.740861
v 0.130629 0.122092 0.774104
v 0.192789 0.129043 0.809196
v 0.257228 0.129087 0.809154
v 0.262385 0.122106 0.774091
v 0.264814 0.117450 0.740858
v 0.200156 0.119515 0.472402
v 0.134451 0.110357 0.271573
v 0.134071 0.109630 0.472346
v 0.265801 0.132887 0.472479
v 0.200417 0.121578 0.271600
v 0.265801 0.136760 0.271636
v 0.133139 0.107132 0.620694
v 0.199258 0.111533 0.649905
v 0.199515 0.111827 0.620824
v 0.132766 0.108960 0.649826
v 0.198988 0.112517 0.681808
v 0.265802 0.113650 0.681841
v 0.265802 0.115015 0.650013
v 0.265802 0.118179 0.621001
v 0.133616 0.108087 0.585072
v 0.199705 0.113619 0.599975
v 0.199843 0.115910 0.585194
v 0.133415 0.107135 0.599833
v 0.265802 0.122391 0.600167
v 0.265802 0.126494 0.585360
v 0.199971 0.117740 0.561774
v 0.133802 0.108919 0.561684
v 0.265801 0.129673 0.561897
v 0.132372 0.111679 0.681785
v 0.198691 0.114406 0.711231
v 0.132014 0.114300 0.711231
v 0.265678 0.114550 0.711231
v 0.128422 0.129003 0.809231
v 0.185973 0.138835 0.843862
v 0.123969 0.138721 0.843969
v 0.174659 0.151277 0.878772
v 0.232879 0.151461 0.878557
v 0.247986 0.138960 0.843738
v 0.116440 0.151108 0.878962
v 0.158047 0.165565 0.914237
v 0.105597 0.165478 0.914617
v 0.137404 0.179231 0.946154
v 0.176037 0.180239 0.947930
v 0.209834 0.165839 0.914224
v 0.093456 0.179628 0.947463
v 0.117888 0.188602 0.967420
v 0.082440 0.200964 0.994816
v 0.083916 0.191424 0.973922
v 0.130771 0.192577 0.976014
v 0.000000 0.179955 0.948708
v 0.042445 0.192755 0.977078
v 0.047107 0.179932 0.948500
v 0.000000 0.192935 0.977567
v 0.039315 0.204344 1.002366
v 0.000000 0.150921 0.879154
v 0.052846 0.165408 0.914917
v 0.058220 0.150975 0.879100
v 0.000000 0.165365 0.915014
v 0.000000 0.128960 0.809263
v 0.061980 0.138632 0.844041
v 0.064175 0.128973 0.809254
v 0.000000 0.138596 0.844068
v 0.000000 0.111284 0.681775
v 0.065852 0.114255 0.711232
v 0.066087 0.111334 0.681776
v 0.000000 0.114249 0.711233
v 0.065609 0.117445 0.740865
v 0.000000 0.104979 0.472320
v 0.067070 0.105287 0.561648
v 0.067255 0.105560 0.472323
v 0.000000 0.104768 0.561643
v 0.066942 0.104866 0.585022
v 0.000000 0.104405 0.585016
v 0.066804 0.104465 0.599776
v 0.000000 0.104083 0.599768
v 0.066615 0.105199 0.620641
v 0.000000 0.104922 0.620634
v 0.066358 0.107900 0.649794
v 0.000000 0.107748 0.649790
v 0.000000 0.105076 0.271561
v 0.067516 0.105736 0.271562
v 0.000000 0.117444 0.740866
v 0.065209 0.122088 0.774107
v 0.000000 0.122086 0.774109
v -0.131542 0.117446 0.740864
v -0.196401 0.122099 0.774098
v -0.130629 0.122093 0.774104
v -0.198016 0.117448 0.740861
v -0.262385 0.122106 0.774091
v -0.257227 0.129087 0.809154
v -0.192788 0.129043 0.809196
v -0.128422 0.129004 0.809231
v -0.134451 0.110357 0.271573
v -0.200155 0.119515 0.472403
v -0.134071 0.109630 0.472346
v -0.200417 0.121578 0.271600
v -0.265801 0.136760 0.271636
v -0.265801 0.132887 0.472479
v -0.133139 0.107132 0.620694
v -0.199258 0.111534 0.649905
v -0.132765 0.108960 0.649826
v -0.199515 0.111827 0.620824
v -0.265801 0.115015 0.650013
v -0.265801 0.113650 0.681841
v -0.198987 0.112517 0.681808
v -0.132372 0.111679 0.681785
v -0.133615 0.108087 0.585072
v -0.199704 0.113619 0.599975
v -0.133414 0.107135 0.599833
v -0.199842 0.115911 0.585194
v -0.265801 0.122391 0.600167
v -0.265801 0.118179 0.621001
v -0.199971 0.117740 0.561775
v -0.133802 0.108919 0.561684
v -0.265801 0.129673 0.561897
v -0.265801 0.126494 0.585360
v -0.198691 0.114407 0.711231
v -0.132014 0.114300 0.711231
v -0.265678 0.114551 0.711231
v -0.264814 0.117451 0.740858
v -0.185972 0.138835 0.843863
v -0.123968 0.138721 0.843969
v -0.247985 0.138961 0.843739
v -0.232878 0.151461 0.878557
v -0.174659 0.151277 0.878772
v -0.116439 0.151108 0.878962
v -0.158047 0.165565 0.914237
v -0.105596 0.165479 0.914617
v -0.209833 0.165839 0.914224
v -0.176036 0.180239 0.947930
v -0.137404 0.179231 0.946154
v -0.093455 0.179628 0.947464
v -0.117887 0.188602 0.967420
v -0.083915 0.191424 0.973922
v -0.130770 0.192577 0.976015
v -0.082439 0.200964 0.994817
v -0.042444 0.192755 0.977078
v -0.047106 0.179932 0.948500
v -0.039314 0.204344 1.002366
v 0.000000 0.204827 1.003444
v -0.052845 0.165408 0.914917
v -0.058219 0.150975 0.879100
v -0.061980 0.138632 0.844041
v -0.064175 0.128973 0.809254
v -0.065852 0.114256 0.711232
v -0.066087 0.111334 0.681776
v -0.065609 0.117445 0.740865
v -0.067070 0.105287 0.561648
v -0.067255 0.105560 0.472323
v -0.066942 0.104866 0.585022
v -0.066803 0.104465 0.599776
v -0.066614 0.105199 0.620641
v -0.066357 0.107900 0.649794
v -0.067516 0.105736 0.271563
v -0.065209 0.122088 0.774107
v 0.265801 0.138782 0.003838
v -0.265801 0.138782 0.003838
vt 0.583209 0.858610
vt 0.624236 0.874781
vt 0.582631 0.874784
vt 0.625258 0.858609
vt 0.665975 0.874778
vt 0.662712 0.891838
vt 0.621951 0.891858
vt 0.581235 0.891875
vt 0.585048 0.630270
vt 0.626611 0.727987
vt 0.584808 0.727959
vt 0.585179 0.500000
vt 0.626776 0.630283
vt 0.626866 0.500000
vt 0.668136 0.630301
vt 0.668136 0.728024
vt 0.584219 0.800140
vt 0.626043 0.814353
vt 0.583982 0.814315
vt 0.626206 0.800203
vt 0.668136 0.814406
vt 0.668136 0.829892
vt 0.625872 0.829876
vt 0.583734 0.829865
vt 0.584520 0.782808
vt 0.626325 0.790059
vt 0.584393 0.789990
vt 0.626413 0.782867
vt 0.668136 0.790152
vt 0.668136 0.800290
vt 0.626494 0.771472
vt 0.584638 0.771428
vt 0.668136 0.771532
vt 0.668136 0.782948
vt 0.625684 0.844192
vt 0.583507 0.844192
vt 0.668058 0.844192
vt 0.667511 0.858607
vt 0.617639 0.908726
vt 0.578418 0.908778
vt 0.656866 0.908666
vt 0.647310 0.925607
vt 0.610483 0.925712
vt 0.573655 0.925804
vt 0.599975 0.942968
vt 0.566796 0.943153
vt 0.632733 0.942961
vt 0.611354 0.959362
vt 0.586917 0.958497
vt 0.559117 0.959135
vt 0.574571 0.968845
vt 0.553082 0.972008
vt 0.582720 0.973027
vt 0.552148 0.982175
vt 0.500000 0.959740
vt 0.526849 0.973544
vt 0.500000 0.973782
vt 0.529798 0.959639
vt 0.524869 0.985848
vt 0.500000 0.986373
vt 0.500000 0.925897
vt 0.533428 0.943299
vt 0.500000 0.943346
vt 0.536828 0.925871
vt 0.500000 0.891891
vt 0.539206 0.908813
vt 0.500000 0.908826
vt 0.540595 0.891887
vt 0.500000 0.829860
vt 0.541656 0.844193
vt 0.500000 0.844193
vt 0.541804 0.829860
vt 0.541502 0.858611
vt 0.500000 0.858611
vt 0.500000 0.727947
vt 0.542426 0.771410
vt 0.500000 0.771408
vt 0.542543 0.727948
vt 0.542345 0.782783
vt 0.500000 0.782780
vt 0.542257 0.789962
vt 0.500000 0.789958
vt 0.542138 0.800114
vt 0.500000 0.800111
vt 0.541975 0.814299
vt 0.500000 0.814297
vt 0.500000 0.630265
vt 0.500000 0.500000
vt 0.542708 0.630265
vt 0.542798 0.500000
vt 0.541249 0.874786
vt 0.500000 0.874786
vt 0.416791 0.858610
vt 0.375764 0.874781
vt 0.374743 0.858609
vt 0.417369 0.874784
vt 0.378049 0.891858
vt 0.337288 0.891838
vt 0.334025 0.874778
vt 0.332489 0.858607
vt 0.373389 0.727987
vt 0.414952 0.630270
vt 0.415192 0.727959
vt 0.331864 0.728024
vt 0.373224 0.630283
vt 0.331864 0.630301
vt 0.373134 0.500000
vt 0.414821 0.500000
vt 0.415781 0.800140
vt 0.373957 0.814353
vt 0.373794 0.800203
vt 0.416018 0.814315
vt 0.374128 0.829876
vt 0.331864 0.829892
vt 0.331864 0.814405
vt 0.331864 0.800290
vt 0.415480 0.782808
vt 0.373675 0.790059
vt 0.373587 0.782867
vt 0.415607 0.789990
vt 0.331864 0.790152
vt 0.331864 0.782948
vt 0.373506 0.771472
vt 0.415362 0.771428
vt 0.331864 0.771532
vt 0.416266 0.829865
vt 0.374316 0.844192
vt 0.416493 0.844192
vt 0.331942 0.844192
vt 0.418765 0.891875
vt 0.382361 0.908726
vt 0.421582 0.908778
vt 0.389517 0.925712
vt 0.352690 0.925607
vt 0.343134 0.908666
vt 0.426345 0.925804
vt 0.400026 0.942968
vt 0.433204 0.943153
vt 0.413084 0.958497
vt 0.388646 0.959362
vt 0.367267 0.942961
vt 0.440883 0.959135
vt 0.425429 0.968845
vt 0.447852 0.982175
vt 0.446918 0.972008
vt 0.417280 0.973026
vt 0.473151 0.973544
vt 0.470202 0.959639
vt 0.475131 0.985848
vt 0.466572 0.943299
vt 0.463172 0.925871
vt 0.460794 0.908813
vt 0.459405 0.891887
vt 0.458344 0.844193
vt 0.458196 0.829860
vt 0.458498 0.858611
vt 0.457574 0.771410
vt 0.457457 0.727948
vt 0.457655 0.782783
vt 0.457743 0.789962
vt 0.457862 0.800114
vt 0.458025 0.814299
vt 0.457292 0.630265
vt 0.457202 0.500000
vt 0.458751 0.874786
vt 0.583209 0.141390
vt 0.624236 0.125219
vt 0.625257 0.141391
vt 0.582631 0.125216
vt 0.621951 0.108142
vt 0.662712 0.108162
vt 0.665975 0.125222
vt 0.667511 0.141393
vt 0.626611 0.272014
vt 0.585048 0.369730
vt 0.584808 0.272041
vt 0.668136 0.271976
vt 0.626776 0.369717
vt 0.668136 0.369699
vt 0.584219 0.199860
vt 0.626043 0.185647
vt 0.626206 0.199797
vt 0.583982 0.185685
vt 0.625872 0.170124
vt 0.668136 0.170108
vt 0.668136 0.185595
vt 0.668136 0.199711
vt 0.584520 0.217193
vt 0.626325 0.209941
vt 0.626413 0.217133
vt 0.584393 0.210010
vt 0.668136 0.209848
vt 0.668136 0.217052
vt 0.626494 0.228528
vt 0.584638 0.228572
vt 0.668136 0.228469
vt 0.583734 0.170135
vt 0.625684 0.155808
vt 0.583507 0.155808
vt 0.668058 0.155808
vt 0.581235 0.108125
vt 0.617639 0.091274
vt 0.578418 0.091223
vt 0.610482 0.074288
vt 0.647310 0.074393
vt 0.656866 0.091334
vt 0.573655 0.074196
vt 0.599975 0.057033
vt 0.566796 0.056847
vt 0.586916 0.041503
vt 0.611354 0.040639
vt 0.632733 0.057039
vt 0.559116 0.040866
vt 0.574571 0.031156
vt 0.552148 0.017825
vt 0.553082 0.027992
vt 0.582720 0.026974
vt 0.500000 0.040260
vt 0.526849 0.026456
vt 0.529797 0.040361
vt 0.500000 0.026218
vt 0.524869 0.014152
vt 0.500000 0.074103
vt 0.533428 0.056702
vt 0.536827 0.074129
vt 0.500000 0.056654
vt 0.500000 0.108109
vt 0.539206 0.091187
vt 0.540595 0.108113
vt 0.500000 0.091174
vt 0.500000 0.170140
vt 0.541656 0.155807
vt 0.541804 0.170140
vt 0.500000 0.155807
vt 0.541502 0.141389
vt 0.500000 0.272053
vt 0.542426 0.228590
vt 0.542543 0.272052
vt 0.500000 0.228592
vt 0.542345 0.217217
vt 0.500000 0.217220
vt 0.542257 0.210038
vt 0.500000 0.210042
vt 0.542138 0.199886
vt 0.500000 0.199889
vt 0.541975 0.185701
vt 0.500000 0.185703
vt 0.500000 0.369736
vt 0.542708 0.369735
vt 0.500000 0.141389
vt 0.541249 0.125214
vt 0.500000 0.125214
vt 0.416791 0.141390
vt 0.375764 0.125219
vt 0.417369 0.125216
vt 0.374742 0.141391
vt 0.334025 0.125222
vt 0.337288 0.108162
vt 0.378049 0.108142
vt 0.418765 0.108125
vt 0.414952 0.369730
vt 0.373389 0.272013
vt 0.415192 0.272041
vt 0.373224 0.369717
vt 0.331864 0.369699
vt 0.331864 0.271976
vt 0.415781 0.199860
vt 0.373957 0.185647
vt 0.416018 0.185685
vt 0.373794 0.199797
vt 0.331864 0.185594
vt 0.331864 0.170108
vt 0.374128 0.170124
vt 0.416266 0.170135
vt 0.415480 0.217193
vt 0.373675 0.209941
vt 0.415607 0.210010
vt 0.373587 0.217133
vt 0.331864 0.209848
vt 0.331864 0.199711
vt 0.373506 0.228528
vt 0.415362 0.228572
vt 0.331864 0.228468
vt 0.331864 0.217052
vt 0.374315 0.155808
vt 0.416493 0.155808
vt 0.331942 0.155808
vt 0.332489 0.141392
vt 0.382361 0.091274
vt 0.421582 0.091222
vt 0.343134 0.091334
vt 0.352690 0.074393
vt 0.389517 0.074288
vt 0.426345 0.074196
vt 0.400025 0.057033
vt 0.433204 0.056847
vt 0.367267 0.057039
vt 0.388646 0.040638
vt 0.413083 0.041503
vt 0.440883 0.040866
vt 0.425429 0.031156
vt 0.446918 0.027992
vt 0.417280 0.026974
vt 0.447852 0.017825
vt 0.473151 0.026456
vt 0.470202 0.040361
vt 0.475131 0.014152
vt 0.500000 0.013627
vt 0.466572 0.056702
vt 0.463172 0.074129
vt 0.460794 0.091187
vt 0.459405 0.108113
vt 0.458344 0.155807
vt 0.458196 0.170140
vt 0.458498 0.141389
vt 0.457574 0.228590
vt 0.457457 0.272052
vt 0.457655 0.217217
vt 0.457743 0.210038
vt 0.457862 0.199886
vt 0.458025 0.185701
vt 0.457292 0.369735
vt 0.458751 0.125214
vt 0.668136 0.500000
vt 0.331864 0.500000
vn -0.0002 0.9925 0.1221
vn -0.0002 0.9860 0.1665
vn -0.0002 0.9861 0.1659
vn -0.0003 0.9927 0.1206
vn -0.0001 0.9863 0.1651
vn -0.0005 0.9732 0.2298
vn -0.0010 0.9724 0.2335
vn -0.0008 0.9728 0.2316
vn -0.1176 0.9931 -0.0034
vn -0.1727 0.9849 -0.0156
vn -0.1033 0.9946 -0.0067
vn -0.1250 0.9922 -0.0000
vn -0.1961 0.9806 -0.0081
vn -0.2082 0.9781 -0.0000
vn -0.2273 0.9738 -0.0115
vn -0.2023 0.9790 -0.0234
vn -0.0461 0.9985 0.0287
vn -0.0450 0.9989 0.0103
vn -0.0249 0.9971 0.0721
vn -0.0804 0.9955 -0.0493
vn -0.0682 0.9957 -0.0626
vn -0.0296 0.9996 0.0044
vn -0.0167 0.9986 0.0493
vn -0.0087 0.9962 0.0868
vn -0.0797 0.9955 -0.0512
vn -0.1108 0.9865 -0.1201
vn -0.0650 0.9973 -0.0342
vn -0.1344 0.9842 -0.1156
vn -0.1402 0.9647 -0.2230
vn -0.1093 0.9838 -0.1419
vn -0.1529 0.9870 -0.0491
vn -0.0911 0.9956 -0.0228
vn -0.1823 0.9801 -0.0786
vn -0.1639 0.9678 -0.1912
vn -0.0035 0.9964 0.0845
vn -0.0017 0.9952 0.0976
vn -0.0076 0.9976 0.0682
vn -0.0008 0.9930 0.1181
vn -0.0024 0.9525 0.3046
vn -0.0021 0.9533 0.3021
vn -0.0018 0.9540 0.2997
vn -0.0036 0.9362 0.3514
vn -0.0039 0.9345 0.3560
vn -0.0033 0.9351 0.3545
vn -0.0047 0.9225 0.3860
vn -0.0037 0.9226 0.3856
vn -0.0047 0.9242 0.3820
vn -0.0052 0.9167 0.3996
vn -0.0049 0.9155 0.4022
vn -0.0032 0.9155 0.4022
vn -0.0046 0.9118 0.4106
vn -0.0029 0.9111 0.4121
vn -0.0058 0.9114 0.4114
vn -0.0028 0.9095 0.4158
vn -0.0000 0.9149 0.4037
vn -0.0015 0.9106 0.4132
vn 0.0000 0.9104 0.4138
vn -0.0020 0.9150 0.4033
vn -0.0011 0.9089 0.4169
vn 0.0000 0.9086 0.4176
vn 0.0000 0.9357 0.3527
vn -0.0023 0.9227 0.3856
vn 0.0000 0.9227 0.3855
vn -0.0021 0.9355 0.3532
vn 0.0000 0.9733 0.2297
vn -0.0013 0.9539 0.3002
vn 0.0000 0.9541 0.2994
vn -0.0006 0.9731 0.2302
vn 0.0000 0.9945 0.1048
vn -0.0004 0.9947 0.1029
vn 0.0000 0.9946 0.1036
vn -0.0024 0.9948 0.1023
vn -0.0000 0.9924 0.1227
vn 0.0000 0.9924 0.1228
vn 0.0000 1.0000 -0.0016
vn -0.0300 0.9995 -0.0113
vn 0.0000 1.0000 -0.0092
vn -0.0341 0.9994 -0.0025
vn -0.0260 0.9994 -0.0235
vn 0.0000 0.9998 -0.0190
vn -0.0209 0.9998 0.0027
vn 0.0000 1.0000 0.0087
vn -0.0145 0.9980 0.0621
vn -0.0000 0.9977 0.0678
vn -0.0075 0.9951 0.0983
vn -0.0000 0.9947 0.1027
vn 0.0000 1.0000 -0.0004
vn 0.0000 1.0000 -0.0000
vn -0.0390 0.9992 -0.0010
vn -0.0414 0.9991 -0.0000
vn -0.0001 0.9862 0.1654
vn 0.0000 0.9863 0.1652
vn 0.0002 0.9925 0.1221
vn 0.0002 0.9860 0.1665
vn 0.0003 0.9927 0.1206
vn 0.0002 0.9861 0.1659
vn 0.0010 0.9724 0.2335
vn 0.0005 0.9732 0.2298
vn 0.0001 0.9863 0.1651
vn 0.0008 0.9930 0.1181
vn 0.1727 0.9849 -0.0156
vn 0.1176 0.9931 -0.0034
vn 0.1033 0.9946 -0.0067
vn 0.2023 0.9790 -0.0234
vn 0.1961 0.9806 -0.0081
vn 0.2273 0.9738 -0.0115
vn 0.2082 0.9781 -0.0000
vn 0.1250 0.9922 -0.0000
vn 0.0461 0.9985 0.0287
vn 0.0450 0.9989 0.0103
vn 0.0804 0.9955 -0.0493
vn 0.0249 0.9971 0.0721
vn 0.0167 0.9986 0.0493
vn 0.0296 0.9996 0.0044
vn 0.0682 0.9957 -0.0626
vn 0.1093 0.9838 -0.1419
vn 0.0797 0.9955 -0.0512
vn 0.1108 0.9865 -0.1201
vn 0.1344 0.9842 -0.1156
vn 0.0650 0.9973 -0.0342
vn 0.1402 0.9647 -0.2230
vn 0.1639 0.9678 -0.1912
vn 0.1529 0.9870 -0.0491
vn 0.0911 0.9956 -0.0228
vn 0.1823 0.9801 -0.0786
vn 0.0087 0.9962 0.0868
vn 0.0035 0.9964 0.0845
vn 0.0017 0.9952 0.0976
vn 0.0076 0.9976 0.0682
vn 0.0008 0.9728 0.2316
vn 0.0024 0.9525 0.3046
vn 0.0021 0.9533 0.3021
vn 0.0039 0.9345 0.3560
vn 0.0036 0.9362 0.3514
vn 0.0018 0.9540 0.2997
vn 0.0033 0.9351 0.3545
vn 0.0047 0.9225 0.3860
vn 0.0037 0.9226 0.3856
vn 0.0049 0.9155 0.4022
vn 0.0052 0.9167 0.3996
vn 0.0047 0.9242 0.3820
vn 0.0032 0.9155 0.4022
vn 0.0046 0.9118 0.4106
vn 0.0028 0.9095 0.4158
vn 0.0029 0.9111 0.4121
vn 0.0058 0.9114 0.4114
vn 0.0015 0.9106 0.4132
vn 0.0020 0.9150 0.4033
vn 0.0011 0.9089 0.4169
vn 0.0023 0.9227 0.3856
vn 0.0021 0.9355 0.3532
vn 0.0013 0.9539 0.3002
vn 0.0006 0.9731 0.2302
vn 0.0004 0.9947 0.1029
vn 0.0024 0.9947 0.1023
vn 0.0300 0.9995 -0.0113
vn 0.0341 0.9994 -0.0026
vn 0.0260 0.9994 -0.0235
vn 0.0209 0.9998 0.0027
vn 0.0145 0.9980 0.0621
vn 0.0075 0.9951 0.0983
vn 0.0390 0.9992 -0.0010
vn 0.0414 0.9991 -0.0000
vn 0.0001 0.9862 0.1654
vn -0.0002 0.9925 -0.1221
vn -0.0002 0.9860 -0.1665
vn -0.0003 0.9927 -0.1206
vn -0.0002 0.9861 -0.1659
vn -0.0010 0.9724 -0.2335
vn -0.0005 0.9732 -0.2298
vn -0.0001 0.9863 -0.1651
vn -0.0008 0.9930 -0.1181
vn -0.1727 0.9849 0.0156
vn -0.1176 0.9931 0.0034
vn -0.1033 0.9946 0.0067
vn -0.2023 0.9790 0.0234
vn -0.1961 0.9806 0.0081
vn -0.2273 0.9738 0.0115
vn -0.0461 0.9985 -0.0287
vn -0.0450 0.9989 -0.0103
vn -0.0804 0.9955 0.0493
vn -0.0249 0.9971 -0.0721
vn -0.0167 0.9986 -0.0493
vn -0.0296 0.9996 -0.0044
vn -0.0682 0.9957 0.0626
vn -0.1093 0.9838 0.1419
vn -0.0797 0.9955 0.0512
vn -0.1108 0.9865 0.1201
vn -0.1344 0.9842 0.1156
vn -0.0650 0.9973 0.0342
vn -0.1402 0.9647 0.2230
vn -0.1639 0.9678 0.1912
vn -0.1529 0.9870 0.0491
vn -0.0911 0.9956 0.0228
vn -0.1823 0.9801 0.0786
vn -0.0087 0.9962 -0.0868
vn -0.0035 0.9964 -0.0845
vn -0.0017 0.9952 -0.0976
vn -0.0076 0.9976 -0.0682
vn -0.0008 0.9728 -0.2316
vn -0.0024 0.9525 -0.3046
vn -0.0021 0.9533 -0.3021
vn -0.0039 0.9345 -0.3560
vn -0.0036 0.9362 -0.3514
vn -0.0018 0.9540 -0.2997
vn -0.0033 0.9351 -0.3545
vn -0.0047 0.9225 -0.3860
vn -0.0037 0.9226 -0.3856
vn -0.0049 0.9155 -0.4022
vn -0.0052 0.9167 -0.3996
vn -0.0047 0.9242 -0.3820
vn -0.0032 0.9155 -0.4022
vn -0.0046 0.9118 -0.4106
vn -0.0028 0.9095 -0.4158
vn -0.0029 0.9111 -0.4121
vn -0.0058 0.9114 -0.4114
vn -0.0000 0.9149 -0.4037
vn -0.0015 0.9106 -0.4132
vn -0.0020 0.9150 -0.4033
vn 0.0000 0.9104 -0.4138
vn -0.0011 0.9089 -0.4169
vn 0.0000 0.9357 -0.3527
vn -0.0023 0.9227 -0.3856
vn -0.0021 0.9355 -0.3532
vn 0.0000 0.9227 -0.3855
vn 0.0000 0.9733 -0.2297
vn -0.0013 0.9539 -0.3002
vn -0.0006 0.9731 -0.2302
vn -0.0000 0.9541 -0.2994
vn 0.0000 0.9945 -0.1048
vn -0.0004 0.9947 -0.1029
vn -0.0024 0.9948 -0.1023
vn 0.0000 0.9946 -0.1036
vn -0.0000 0.9924 -0.1227
vn 0.0000 1.0000 0.0016
vn -0.0300 0.9995 0.0113
vn -0.0341 0.9994 0.0025
vn 0.0000 1.0000 0.0092
vn -0.0260 0.9994 0.0235
vn 0.0000 0.9998 0.0190
vn -0.0209 0.9998 -0.0027
vn 0.0000 1.0000 -0.0087
vn -0.0145 0.9980 -0.0621
vn 0.0000 0.9977 -0.0678
vn -0.0075 0.9951 -0.0983
vn 0.0000 0.9947 -0.1027
vn 0.0000 1.0000 0.0004
vn -0.0390 0.9992 0.0010
vn 0.0000 0.9924 -0.1228
vn -0.0001 0.9862 -0.1654
vn 0.0000 0.9863 -0.1652
vn 0.0002 0.9925 -0.1221
vn 0.0002 0.9860 -0.1665
vn 0.0002 0.9861 -0.1659
vn 0.0003 0.9927 -0.1206
vn 0.0001 0.9863 -0.1651
vn 0.0005 0.9732 -0.2298
vn 0.0010 0.9724 -0.2335
vn 0.0008 0.9728 -0.2316
vn 0.1176 0.9931 0.0034
vn 0.1727 0.9849 0.0156
vn 0.1033 0.9946 0.0067
vn 0.1961 0.9806 0.0081
vn 0.2273 0.9738 0.0115
vn 0.2023 0.9790 0.0234
vn 0.0461 0.9985 -0.0287
vn 0.0450 0.9989 -0.0103
vn 0.0249 0.9971 -0.0721
vn 0.0804 0.9955 0.0493
vn 0.0682 0.9957 0.0626
vn 0.0296 0.9996 -0.0044
vn 0.0167 0.9986 -0.0493
vn 0.0087 0.9962 -0.0868
vn 0.0797 0.9955 0.0512
vn 0.1108 0.9865 0.1201
vn 0.0650 0.9973 0.0342
vn 0.1344 0.9842 0.1156
vn 0.1402 0.9647 0.2230
vn 0.1093 0.9838 0.1419
vn 0.1529 0.9870 0.0491
vn 0.0911 0.9956 0.0228
vn 0.1823 0.9801 0.0786
vn 0.1639 0.9678 0.1912
vn 0.0035 0.9964 -0.0845
vn 0.0017 0.9952 -0.0976
vn 0.0076 0.9976 -0.0682
vn 0.0008 0.9930 -0.1181
vn 0.0024 0.9525 -0.3046
vn 0.0021 0.9533 -0.3021
vn 0.0018 0.9540 -0.2997
vn 0.0036 0.9362 -0.3514
vn 0.0039 0.9345 -0.3560
vn 0.0033 0.9351 -0.3545
vn 0.0047 0.9225 -0.3860
vn 0.0037 0.9226 -0.3856
vn 0.0047 0.9242 -0.3820
vn 0.0052 0.9167 -0.3996
vn 0.0049 0.9155 -0.4022
vn 0.0032 0.9155 -0.4022
vn 0.0046 0.9118 -0.4106
vn 0.0029 0.9111 -0.4121
vn 0.0058 0.9114 -0.4114
vn 0.0028 0.9095 -0.4158
vn 0.0015 0.9106 -0.4132
vn 0.0020 0.9150 -0.4033
vn 0.0011 0.9089 -0.4169
vn -0.0000 0.9086 -0.4176
vn 0.0023 0.9227 -0.3856
vn 0.0021 0.9355 -0.3532
vn 0.0013 0.9539 -0.3002
vn 0.0006 0.9731 -0.2302
vn 0.0004 0.9947 -0.1029
vn 0.0024 0.9947 -0.1023
vn 0.0300 0.9995 0.0113
vn 0.0341 0.9994 0.0025
vn 0.0260 0.9994 0.0235
vn 0.0209 0.9998 -0.0027
vn 0.0145 0.9980 -0.0621
vn 0.0075 0.9951 -0.0983
vn 0.0390 0.9992 0.0010
vn 0.0001 0.9862 -0.1654
vn -0.2401 0.9707 -0.0000
vn 0.2401 0.9707 -0.0000
s 1
f 1/1/1 2/2/2 3/3/3
f 4/4/4 5/5/5 2/2/2
f 2/2/2 6/6/6 7/7/7
f 3/3/3 7/7/7 8/8/8
f 9/9/9 10/10/10 11/11/11
f 12/12/12 13/13/13 9/9/9
f 14/14/14 15/15/15 13/13/13
f 13/13/13 16/16/16 10/10/10
f 17/17/17 18/18/18 19/19/19
f 20/20/20 21/21/21 18/18/18
f 18/18/18 22/22/22 23/23/23
f 19/19/19 23/23/23 24/24/24
f 25/25/25 26/26/26 27/27/27
f 28/28/28 29/29/29 26/26/26
f 26/26/26 30/30/30 20/20/20
f 27/27/27 20/20/20 17/17/17
f 11/11/11 31/31/31 32/32/32
f 10/10/10 33/33/33 31/31/31
f 31/31/31 34/34/34 28/28/28
f 32/32/32 28/28/28 25/25/25
f 24/24/24 35/35/35 36/36/36
f 23/23/23 37/37/37 35/35/35
f 35/35/35 38/38/38 4/4/4
f 36/36/36 4/4/4 1/1/1
f 8/8/8 39/39/39 40/40/40
f 7/7/7 41/41/41 39/39/39
f 39/39/39 42/42/42 43/43/43
f 40/40/40 43/43/43 44/44/44
f 44/44/44 45/45/45 46/46/46
f 43/43/43 47/47/47 45/45/45
f 45/45/45 48/48/48 49/49/49
f 46/46/46 49/49/49 50/50/50
f 50/50/50 51/51/51 52/52/52
f 53/53/53 49/49/49 48/48/48
f 54/54/54 51/51/51 53/53/53
f 55/55/55 56/56/56 57/57/57
f 58/58/58 52/52/52 56/56/56
f 56/56/56 54/54/54 59/59/59
f 57/57/57 59/59/59 60/60/60
f 61/61/61 62/62/62 63/63/63
f 64/64/64 46/46/46 62/62/62
f 62/62/62 50/50/50 58/58/58
f 63/63/63 58/58/58 55/55/55
f 65/65/65 66/66/66 67/67/67
f 68/68/68 40/40/40 66/66/66
f 66/66/66 44/44/44 64/64/64
f 67/67/67 64/64/64 61/61/61
f 69/69/69 70/70/70 71/71/71
f 72/72/72 36/36/36 70/70/70
f 70/70/70 1/1/1 73/73/73
f 71/71/71 73/73/73 74/74/74
f 75/75/75 76/76/76 77/77/77
f 78/78/78 32/32/32 76/76/76
f 76/76/76 25/25/25 79/79/79
f 77/77/77 79/79/79 80/80/80
f 80/80/80 81/81/81 82/82/82
f 79/79/79 27/27/27 81/81/81
f 81/81/81 17/17/17 83/83/83
f 82/82/82 83/83/83 84/84/84
f 84/84/84 85/85/85 86/86/86
f 83/83/83 19/19/19 85/85/85
f 85/85/85 24/24/24 72/72/72
f 86/86/86 72/72/72 69/69/69
f 87/87/87 78/78/78 75/75/75
f 88/88/88 89/89/89 87/87/87
f 90/90/90 9/9/9 89/89/89
f 89/89/89 11/11/11 78/78/78
f 74/74/74 91/91/91 92/92/92
f 73/73/73 3/3/3 91/91/91
f 91/91/91 8/8/8 68/68/68
f 92/92/92 68/68/68 65/65/65
f 93/93/93 94/94/94 95/95/95
f 96/96/96 97/97/97 94/94/94
f 94/94/94 98/98/98 99/99/99
f 95/95/95 99/99/99 100/100/100
f 101/101/101 102/102/102 103/103/103
f 104/104/104 105/105/105 101/101/101
f 106/106/106 107/107/107 105/105/105
f 105/105/105 108/108/108 102/102/102
f 109/109/109 110/110/110 111/111/111
f 112/112/112 113/113/113 110/110/110
f 110/110/110 114/114/114 115/115/115
f 111/111/111 115/115/115 116/116/116
f 117/117/117 118/118/118 119/119/119
f 120/120/120 111/111/111 118/118/118
f 118/118/118 116/116/116 121/121/121
f 119/119/119 121/121/121 122/122/122
f 103/103/103 123/123/123 101/101/101
f 124/124/124 119/119/119 123/123/123
f 123/123/123 122/122/122 125/125/125
f 101/101/101 125/125/125 104/104/104
f 126/126/126 127/127/127 113/113/113
f 128/128/128 95/95/95 127/127/127
f 127/127/127 100/100/100 129/129/129
f 113/113/113 129/129/129 114/114/114
f 130/130/130 131/131/131 97/97/97
f 132/132/132 133/133/133 131/131/131
f 131/131/131 134/134/134 135/135/135
f 97/97/97 135/135/135 98/98/98
f 136/136/136 137/137/137 133/133/133
f 138/138/138 139/139/139 137/137/137
f 137/137/137 140/140/140 141/141/141
f 133/133/133 141/141/141 134/134/134
f 142/142/142 143/143/143 139/139/139
f 144/144/144 143/143/143 145/145/145
f 139/139/139 146/146/146 140/140/140
f 55/55/55 147/147/147 148/148/148
f 57/57/57 149/149/149 147/147/147
f 147/147/147 144/144/144 145/145/145
f 148/148/148 145/145/145 142/142/142
f 61/61/61 150/150/150 151/151/151
f 63/63/63 148/148/148 150/150/150
f 150/150/150 142/142/142 138/138/138
f 151/151/151 138/138/138 136/136/136
f 65/65/65 152/152/152 153/153/153
f 67/67/67 151/151/151 152/152/152
f 152/152/152 136/136/136 132/132/132
f 153/153/153 132/132/132 130/130/130
f 69/69/69 154/154/154 155/155/155
f 71/71/71 156/156/73 154/154/154
f 154/154/154 93/93/93 128/128/128
f 155/155/155 128/128/128 126/126/126
f 75/75/75 157/157/156 158/158/157
f 77/77/77 159/159/158 157/157/156
f 157/157/156 117/117/117 124/124/124
f 158/158/157 124/124/124 103/103/103
f 80/80/80 160/160/159 159/159/158
f 82/82/82 161/161/160 160/160/159
f 160/160/159 109/109/109 120/120/120
f 159/159/158 120/120/120 117/117/117
f 84/84/84 162/162/161 161/161/160
f 86/86/86 155/155/155 162/162/161
f 162/162/161 126/126/126 112/112/112
f 161/161/160 112/112/112 109/109/109
f 158/158/157 87/87/87 75/75/75
f 103/103/103 163/163/162 158/158/157
f 102/102/102 164/164/163 163/163/162
f 163/163/162 88/88/88 87/87/87
f 74/74/74 165/165/164 156/156/73
f 92/92/92 153/153/153 165/165/164
f 165/165/164 130/130/130 96/96/96
f 156/156/73 96/96/96 93/93/93
f 166/166/165 167/167/166 168/168/167
f 169/169/168 170/170/169 167/167/166
f 167/167/166 171/171/170 172/172/171
f 168/168/167 172/172/171 173/173/172
f 174/174/173 175/175/174 176/176/175
f 177/177/176 178/178/177 174/174/173
f 179/179/178 14/14/14 178/178/177
f 178/178/177 12/12/12 175/175/174
f 180/180/179 181/181/180 182/182/181
f 183/183/182 184/184/183 181/181/180
f 181/181/180 185/185/184 186/186/185
f 182/182/181 186/186/185 187/187/186
f 188/188/187 189/189/188 190/190/189
f 191/191/190 182/182/181 189/189/188
f 189/189/188 187/187/186 192/192/191
f 190/190/189 192/192/191 193/193/192
f 176/176/175 194/194/193 174/174/173
f 195/195/194 190/190/189 194/194/193
f 194/194/193 193/193/192 196/196/195
f 174/174/173 196/196/195 177/177/176
f 197/197/196 198/198/197 184/184/183
f 199/199/198 168/168/167 198/198/197
f 198/198/197 173/173/172 200/200/199
f 184/184/183 200/200/199 185/185/184
f 201/201/200 202/202/201 170/170/169
f 203/203/202 204/204/203 202/202/201
f 202/202/201 205/205/204 206/206/205
f 170/170/169 206/206/205 171/171/170
f 207/207/206 208/208/207 204/204/203
f 209/209/208 210/210/209 208/208/207
f 208/208/207 211/211/210 212/212/211
f 204/204/203 212/212/211 205/205/204
f 213/213/212 214/214/213 210/210/209
f 215/215/214 214/214/213 216/216/215
f 210/210/209 217/217/216 211/211/210
f 218/218/217 219/219/218 220/220/219
f 221/221/220 222/222/221 219/219/218
f 219/219/218 215/215/214 216/216/215
f 220/220/219 216/216/215 213/213/212
f 223/223/222 224/224/223 225/225/224
f 226/226/225 220/220/219 224/224/223
f 224/224/223 213/213/212 209/209/208
f 225/225/224 209/209/208 207/207/206
f 227/227/226 228/228/227 229/229/228
f 230/230/229 225/225/224 228/228/227
f 228/228/227 207/207/206 203/203/202
f 229/229/228 203/203/202 201/201/200
f 231/231/230 232/232/231 233/233/232
f 234/234/233 235/235/234 232/232/231
f 232/232/231 166/166/165 199/199/198
f 233/233/232 199/199/198 197/197/196
f 236/236/235 237/237/236 238/238/237
f 239/239/238 240/240/239 237/237/236
f 237/237/236 188/188/187 195/195/194
f 238/238/237 195/195/194 176/176/175
f 241/241/240 242/242/241 240/240/239
f 243/243/242 244/244/243 242/242/241
f 242/242/241 180/180/179 191/191/190
f 240/240/239 191/191/190 188/188/187
f 245/245/244 246/246/245 244/244/243
f 247/247/246 233/233/232 246/246/245
f 246/246/245 197/197/196 183/183/182
f 244/244/243 183/183/182 180/180/179
f 238/238/237 248/248/247 236/236/235
f 176/176/175 249/249/248 238/238/237
f 175/175/174 90/90/90 249/249/248
f 249/249/248 88/88/88 248/248/247
f 250/250/249 251/251/250 235/235/234
f 252/252/251 229/229/228 251/251/250
f 251/251/250 201/201/200 169/169/168
f 235/235/234 169/169/168 166/166/165
f 253/253/252 254/254/253 255/255/254
f 256/256/255 257/257/256 254/254/253
f 254/254/253 258/258/257 259/259/258
f 255/255/254 259/259/258 260/260/259
f 261/261/260 262/262/261 263/263/262
f 108/108/108 264/264/263 261/261/260
f 107/107/107 265/265/264 264/264/263
f 264/264/263 266/266/265 262/262/261
f 267/267/266 268/268/267 269/269/268
f 270/270/269 271/271/270 268/268/267
f 268/268/267 272/272/271 273/273/272
f 269/269/268 273/273/272 274/274/273
f 275/275/274 276/276/275 277/277/276
f 278/278/277 279/279/278 276/276/275
f 276/276/275 280/280/279 270/270/269
f 277/277/276 270/270/269 267/267/266
f 263/263/262 281/281/280 282/282/281
f 262/262/261 283/283/282 281/281/280
f 281/281/280 284/284/283 278/278/277
f 282/282/281 278/278/277 275/275/274
f 274/274/273 285/285/284 286/286/285
f 273/273/272 287/287/286 285/285/284
f 285/285/284 288/288/287 256/256/255
f 286/286/285 256/256/255 253/253/252
f 260/260/259 289/289/288 290/290/289
f 259/259/258 291/291/290 289/289/288
f 289/289/288 292/292/291 293/293/292
f 290/290/289 293/293/292 294/294/293
f 294/294/293 295/295/294 296/296/295
f 293/293/292 297/297/296 295/295/294
f 295/295/294 298/298/297 299/299/298
f 296/296/295 299/299/298 300/300/299
f 300/300/299 301/301/300 302/302/301
f 303/303/302 299/299/298 298/298/297
f 304/304/303 301/301/300 303/303/302
f 218/218/217 305/305/304 221/221/220
f 306/306/305 302/302/301 305/305/304
f 305/305/304 304/304/303 307/307/306
f 221/221/220 307/307/306 308/308/307
f 223/223/222 309/309/308 226/226/225
f 310/310/309 296/296/295 309/309/308
f 309/309/308 300/300/299 306/306/305
f 226/226/225 306/306/305 218/218/217
f 227/227/226 311/311/310 230/230/229
f 312/312/311 290/290/289 311/311/310
f 311/311/310 294/294/293 310/310/309
f 230/230/229 310/310/309 223/223/222
f 231/231/230 313/313/312 234/234/233
f 314/314/313 286/286/285 313/313/312
f 313/313/312 253/253/252 315/315/234
f 234/234/233 315/315/234 250/250/249
f 236/236/235 316/316/314 239/239/238
f 317/317/315 282/282/281 316/316/314
f 316/316/314 275/275/274 318/318/316
f 239/239/238 318/318/316 241/241/240
f 241/241/240 319/319/317 243/243/242
f 318/318/316 277/277/276 319/319/317
f 319/319/317 267/267/266 320/320/318
f 243/243/242 320/320/318 245/245/244
f 245/245/244 321/321/319 247/247/246
f 320/320/318 269/269/268 321/321/319
f 321/321/319 274/274/273 314/314/313
f 247/247/246 314/314/313 231/231/230
f 248/248/247 317/317/315 236/236/235
f 88/88/88 322/322/320 248/248/247
f 164/164/163 261/261/260 322/322/320
f 322/322/320 263/263/262 317/317/315
f 250/250/249 323/323/321 252/252/251
f 315/315/234 255/255/254 323/323/321
f 323/323/321 260/260/259 312/312/311
f 252/252/251 312/312/311 227/227/226
f 1/1/1 4/4/4 2/2/2
f 4/4/4 38/38/38 5/5/5
f 2/2/2 5/5/5 6/6/6
f 3/3/3 2/2/2 7/7/7
f 9/9/9 13/13/13 10/10/10
f 12/12/12 14/14/14 13/13/13
f 14/14/14 324/324/322 15/15/15
f 13/13/13 15/15/15 16/16/16
f 17/17/17 20/20/20 18/18/18
f 20/20/20 30/30/30 21/21/21
f 18/18/18 21/21/21 22/22/22
f 19/19/19 18/18/18 23/23/23
f 25/25/25 28/28/28 26/26/26
f 28/28/28 34/34/34 29/29/29
f 26/26/26 29/29/29 30/30/30
f 27/27/27 26/26/26 20/20/20
f 11/11/11 10/10/10 31/31/31
f 10/10/10 16/16/16 33/33/33
f 31/31/31 33/33/33 34/34/34
f 32/32/32 31/31/31 28/28/28
f 24/24/24 23/23/23 35/35/35
f 23/23/23 22/22/22 37/37/37
f 35/35/35 37/37/37 38/38/38
f 36/36/36 35/35/35 4/4/4
f 8/8/8 7/7/7 39/39/39
f 7/7/7 6/6/6 41/41/41
f 39/39/39 41/41/41 42/42/42
f 40/40/40 39/39/39 43/43/43
f 44/44/44 43/43/43 45/45/45
f 43/43/43 42/42/42 47/47/47
f 45/45/45 47/47/47 48/48/48
f 46/46/46 45/45/45 49/49/49
f 50/50/50 49/49/49 51/51/51
f 53/53/53 51/51/51 49/49/49
f 54/54/54 52/52/52 51/51/51
f 55/55/55 58/58/58 56/56/56
f 58/58/58 50/50/50 52/52/52
f 56/56/56 52/52/52 54/54/54
f 57/57/57 56/56/56 59/59/59
f 61/61/61 64/64/64 62/62/62
f 64/64/64 44/44/44 46/46/46
f 62/62/62 46/46/46 50/50/50
f 63/63/63 62/62/62 58/58/58
f 65/65/65 68/68/68 66/66/66
f 68/68/68 8/8/8 40/40/40
f 66/66/66 40/40/40 44/44/44
f 67/67/67 66/66/66 64/64/64
f 69/69/69 72/72/72 70/70/70
f 72/72/72 24/24/24 36/36/36
f 70/70/70 36/36/36 1/1/1
f 71/71/71 70/70/70 73/73/73
f 75/75/75 78/78/78 76/76/76
f 78/78/78 11/11/11 32/32/32
f 76/76/76 32/32/32 25/25/25
f 77/77/77 76/76/76 79/79/79
f 80/80/80 79/79/79 81/81/81
f 79/79/79 25/25/25 27/27/27
f 81/81/81 27/27/27 17/17/17
f 82/82/82 81/81/81 83/83/83
f 84/84/84 83/83/83 85/85/85
f 83/83/83 17/17/17 19/19/19
f 85/85/85 19/19/19 24/24/24
f 86/86/86 85/85/85 72/72/72
f 87/87/87 89/89/89 78/78/78
f 88/88/88 90/90/90 89/89/89
f 90/90/90 12/12/12 9/9/9
f 89/89/89 9/9/9 11/11/11
f 74/74/74 73/73/73 91/91/91
f 73/73/73 1/1/1 3/3/3
f 91/91/91 3/3/3 8/8/8
f 92/92/92 91/91/91 68/68/68
f 93/93/93 96/96/96 94/94/94
f 96/96/96 130/130/130 97/97/97
f 94/94/94 97/97/97 98/98/98
f 95/95/95 94/94/94 99/99/99
f 101/101/101 105/105/105 102/102/102
f 104/104/104 106/106/106 105/105/105
f 106/106/106 325/325/323 107/107/107
f 105/105/105 107/107/107 108/108/108
f 109/109/109 112/112/112 110/110/110
f 112/112/112 126/126/126 113/113/113
f 110/110/110 113/113/113 114/114/114
f 111/111/111 110/110/110 115/115/115
f 117/117/117 120/120/120 118/118/118
f 120/120/120 109/109/109 111/111/111
f 118/118/118 111/111/111 116/116/116
f 119/119/119 118/118/118 121/121/121
f 103/103/103 124/124/124 123/123/123
f 124/124/124 117/117/117 119/119/119
f 123/123/123 119/119/119 122/122/122
f 101/101/101 123/123/123 125/125/125
f 126/126/126 128/128/128 127/127/127
f 128/128/128 93/93/93 95/95/95
f 127/127/127 95/95/95 100/100/100
f 113/113/113 127/127/127 129/129/129
f 130/130/130 132/132/132 131/131/131
f 132/132/132 136/136/136 133/133/133
f 131/131/131 133/133/133 134/134/134
f 97/97/97 131/131/131 135/135/135
f 136/136/136 138/138/138 137/137/137
f 138/138/138 142/142/142 139/139/139
f 137/137/137 139/139/139 140/140/140
f 133/133/133 137/137/137 141/141/141
f 142/142/142 145/145/145 143/143/143
f 144/144/144 146/146/146 143/143/143
f 139/139/139 143/143/143 146/146/146
f 55/55/55 57/57/57 147/147/147
f 57/57/57 60/60/60 149/149/149
f 147/147/147 149/149/149 144/144/144
f 148/148/148 147/147/147 145/145/145
f 61/61/61 63/63/63 150/150/150
f 63/63/63 55/55/55 148/148/148
f 150/150/150 148/148/148 142/142/142
f 151/151/151 150/150/150 138/138/138
f 65/65/65 67/67/67 152/152/152
f 67/67/67 61/61/61 151/151/151
f 152/152/152 151/151/151 136/136/136
f 153/153/153 152/152/152 132/132/132
f 69/69/69 71/71/71 154/154/154
f 71/71/71 74/74/74 156/156/73
f 154/154/154 156/156/73 93/93/93
f 155/155/155 154/154/154 128/128/128
f 75/75/75 77/77/77 157/157/156
f 77/77/77 80/80/80 159/159/158
f 157/157/156 159/159/158 117/117/117
f 158/158/157 157/157/156 124/124/124
f 80/80/80 82/82/82 160/160/159
f 82/82/82 84/84/84 161/161/160
f 160/160/159 161/161/160 109/109/109
f 159/159/158 160/160/159 120/120/120
f 84/84/84 86/86/86 162/162/161
f 86/86/86 69/69/69 155/155/155
f 162/162/161 155/155/155 126/126/126
f 161/161/160 162/162/161 112/112/112
f 158/158/157 163/163/162 87/87/87
f 103/103/103 102/102/102 163/163/162
f 102/102/102 108/108/108 164/164/163
f 163/163/162 164/164/163 88/88/88
f 74/74/74 92/92/92 165/165/164
f 92/92/92 65/65/65 153/153/153
f 165/165/164 153/153/153 130/130/130
f 156/156/73 165/165/164 96/96/96
f 166/166/165 169/169/168 167/167/166
f 169/169/168 201/201/200 170/170/169
f 167/167/166 170/170/169 171/171/170
f 168/168/167 167/167/166 172/172/171
f 174/174/173 178/178/177 175/175/174
f 177/177/176 179/179/178 178/178/177
f 179/179/178 324/324/322 14/14/14
f 178/178/177 14/14/14 12/12/12
f 180/180/179 183/183/182 181/181/180
f 183/183/182 197/197/196 184/184/183
f 181/181/180 184/184/183 185/185/184
f 182/182/181 181/181/180 186/186/185
f 188/188/187 191/191/190 189/189/188
f 191/191/190 180/180/179 182/182/181
f 189/189/188 182/182/181 187/187/186
f 190/190/189 189/189/188 192/192/191
f 176/176/175 195/195/194 194/194/193
f 195/195/194 188/188/187 190/190/189
f 194/194/193 190/190/189 193/193/192
f 174/174/173 194/194/193 196/196/195
f 197/197/196 199/199/198 198/198/197
f 199/199/198 166/166/165 168/168/167
f 198/198/197 168/168/167 173/173/172
f 184/184/183 198/198/197 200/200/199
f 201/201/200 203/203/202 202/202/201
f 203/203/202 207/207/206 204/204/203
f 202/202/201 204/204/203 205/205/204
f 170/170/169 202/202/201 206/206/205
f 207/207/206 209/209/208 208/208/207
f 209/209/208 213/213/212 210/210/209
f 208/208/207 210/210/209 211/211/210
f 204/204/203 208/208/207 212/212/211
f 213/213/212 216/216/215 214/214/213
f 215/215/214 217/217/216 214/214/213
f 210/210/209 214/214/213 217/217/216
f 218/218/217 221/221/220 219/219/218
f 221/221/220 308/308/307 222/222/221
f 219/219/218 222/222/221 215/215/214
f 220/220/219 219/219/218 216/216/215
f 223/223/222 226/226/225 224/224/223
f 226/226/225 218/218/217 220/220/219
f 224/224/223 220/220/219 213/213/212
f 225/225/224 224/224/223 209/209/208
f 227/227/226 230/230/229 228/228/227
f 230/230/229 223/223/222 225/225/224
f 228/228/227 225/225/224 207/207/206
f 229/229/228 228/228/227 203/203/202
f 231/231/230 234/234/233 232/232/231
f 234/234/233 250/250/249 235/235/234
f 232/232/231 235/235/234 166/166/165
f 233/233/232 232/232/231 199/199/198
f 236/236/235 239/239/238 237/237/236
f 239/239/238 241/241/240 240/240/239
f 237/237/236 240/240/239 188/188/187
f 238/238/237 237/237/236 195/195/194
f 241/241/240 243/243/242 242/242/241
f 243/243/242 245/245/244 244/244/243
f 242/242/241 244/244/243 180/180/179
f 240/240/239 242/242/241 191/191/190
f 245/245/244 247/247/246 246/246/245
f 247/247/246 231/231/230 233/233/232
f 246/246/245 233/233/232 197/197/196
f 244/244/243 246/246/245 183/183/182
f 238/238/237 249/249/248 248/248/247
f 176/176/175 175/175/174 249/249/248
f 175/175/174 12/12/12 90/90/90
f 249/249/248 90/90/90 88/88/88
f 250/250/249 252/252/251 251/251/250
f 252/252/251 227/227/226 229/229/228
f 251/251/250 229/229/228 201/201/200
f 235/235/234 251/251/250 169/169/168
f 253/253/252 256/256/255 254/254/253
f 256/256/255 288/288/287 257/257/256
f 254/254/253 257/257/256 258/258/257
f 255/255/254 254/254/253 259/259/258
f 261/261/260 264/264/263 262/262/261
f 108/108/108 107/107/107 264/264/263
f 107/107/107 325/325/323 265/265/264
f 264/264/263 265/265/264 266/266/265
f 267/267/266 270/270/269 268/268/267
f 270/270/269 280/280/279 271/271/270
f 268/268/267 271/271/270 272/272/271
f 269/269/268 268/268/267 273/273/272
f 275/275/274 278/278/277 276/276/275
f 278/278/277 284/284/283 279/279/278
f 276/276/275 279/279/278 280/280/279
f 277/277/276 276/276/275 270/270/269
f 263/263/262 262/262/261 281/281/280
f 262/262/261 266/266/265 283/283/282
f 281/281/280 283/283/282 284/284/283
f 282/282/281 281/281/280 278/278/277
f 274/274/273 273/273/272 285/285/284
f 273/273/272 272/272/271 287/287/286
f 285/285/284 287/287/286 288/288/287
f 286/286/285 285/285/284 256/256/255
f 260/260/259 259/259/258 289/289/288
f 259/259/258 258/258/257 291/291/290
f 289/289/288 291/291/290 292/292/291
f 290/290/289 289/289/288 293/293/292
f 294/294/293 293/293/292 295/295/294
f 293/293/292 292/292/291 297/297/296
f 295/295/294 297/297/296 298/298/297
f 296/296/295 295/295/294 299/299/298
f 300/300/299 299/299/298 301/301/300
f 303/303/302 301/301/300 299/299/298
f 304/304/303 302/302/301 301/301/300
f 218/218/217 306/306/305 305/305/304
f 306/306/305 300/300/299 302/302/301
f 305/305/304 302/302/301 304/304/303
f 221/221/220 305/305/304 307/307/306
f 223/223/222 310/310/309 309/309/308
f 310/310/309 294/294/293 296/296/295
f 309/309/308 296/296/295 300/300/299
f 226/226/225 309/309/308 306/306/305
f 227/227/226 312/312/311 311/311/310
f 312/312/311 260/260/259 290/290/289
f 311/311/310 290/290/289 294/294/293
f 230/230/229 311/311/310 310/310/309
f 231/231/230 314/314/313 313/313/312
f 314/314/313 274/274/273 286/286/285
f 313/313/312 286/286/285 253/253/252
f 234/234/233 313/313/312 315/315/234
f 236/236/235 317/317/315 316/316/314
f 317/317/315 263/263/262 282/282/281
f 316/316/314 282/282/281 275/275/274
f 239/239/238 316/316/314 318/318/316
f 241/241/240 318/318/316 319/319/317
f 318/318/316 275/275/274 277/277/276
f 319/319/317 277/277/276 267/267/266
f 243/243/242 319/319/317 320/320/318
f 245/245/244 320/320/318 321/321/319
f 320/320/318 267/267/266 269/269/268
f 321/321/319 269/269/268 274/274/273
f 247/247/246 321/321/319 314/314/313
f 248/248/247 322/322/320 317/317/315
f 88/88/88 164/164/163 322/322/320
f 164/164/163 108/108/108 261/261/260
f 322/322/320 261/261/260 263/263/262
f 250/250/249 315/315/234 323/323/321
f 315/315/234 253/253/252 255/255/254
f 323/323/321 255/255/254 260/260/259
f 252/252/251 323/323/321 312/312/311
