# Blender v3.6.23 OBJ File: 'sk.blend'
# www.blender.org
o Wheel.002_Skateboard_0.001
v -0.027074 0.075979 0.000000
v -0.000000 0.073390 0.019665
v -0.000000 0.075979 0.000000
v -0.027074 0.073390 0.019665
v 0.000000 0.065800 0.037989
v -0.027074 0.065800 0.037989
v 0.000000 0.053725 0.053725
v -0.027074 0.053725 0.053725
v 0.000000 0.037989 0.065800
v -0.027074 0.037989 0.065800
v 0.000000 0.019665 0.073390
v -0.027074 0.019665 0.073390
v 0.000000 -0.000000 0.075979
v -0.027074 -0.000000 0.075979
v 0.000000 -0.019665 0.073390
v -0.027074 -0.019665 0.073390
v 0.000000 -0.037989 0.065800
v -0.027074 -0.037989 0.065800
v 0.000000 -0.053725 0.053725
v -0.027074 -0.053725 0.053725
v 0.000000 -0.065800 0.037989
v -0.027074 -0.065800 0.037989
v 0.000000 -0.073390 0.019665
v -0.027074 -0.073390 0.019665
v 0.000000 -0.075979 -0.000000
v -0.027074 -0.075979 0.000000
v 0.000000 -0.073390 -0.019665
v -0.027074 -0.073390 -0.019665
v -0.000000 -0.065800 -0.037989
v -0.027074 -0.065800 -0.037989
v -0.000000 -0.053725 -0.053725
v -0.027074 -0.053725 -0.053725
v -0.000000 -0.037989 -0.065800
v -0.027074 -0.037989 -0.065800
v -0.000000 -0.019665 -0.073390
v -0.027074 -0.019665 -0.073390
v -0.000000 0.000000 -0.075979
v -0.027074 -0.000000 -0.075979
v -0.000000 0.019665 -0.073390
v -0.027074 0.019665 -0.073390
v -0.000000 0.037989 -0.065800
v -0.027074 0.037989 -0.065800
v -0.000000 0.053725 -0.053725
v -0.027074 0.053725 -0.053725
v -0.000000 0.065800 -0.037989
v -0.027074 0.053725 0.053725
v -0.038092 0.059404 0.034297
v -0.038092 0.048503 0.048503
v -0.027074 0.065800 -0.037989
v -0.000000 0.073390 -0.019665
v -0.027074 0.073390 -0.019665
v -0.000000 0.075979 0.000000
v -0.038092 -0.059404 0.034297
v -0.042790 -0.051384 0.013768
v -0.038092 -0.066256 0.017753
v -0.027074 -0.019665 0.073390
v -0.038092 -0.034297 0.059404
v -0.027074 -0.037989 0.065800
v -0.027074 0.075979 0.000000
v -0.038092 0.066256 0.017753
v -0.027074 0.073390 0.019665
v -0.027074 -0.075979 0.000000
v -0.038092 -0.066256 -0.017753
v -0.027074 -0.073390 -0.019665
v -0.027074 -0.019665 -0.073390
v -0.038093 -0.000000 -0.068593
v -0.027074 -0.000000 -0.075979
v -0.027074 0.065800 -0.037989
v -0.038093 0.066256 -0.017753
v -0.027074 0.073390 -0.019665
v -0.027074 0.019665 0.073390
v -0.038092 -0.000000 0.068593
v -0.027074 -0.000000 0.075979
v -0.027074 -0.065800 0.037989
v -0.027074 -0.073390 0.019665
v -0.027074 -0.053725 -0.053725
v -0.038093 -0.034297 -0.059404
v -0.027074 -0.037989 -0.065800
v -0.027074 0.037989 -0.065800
v -0.038093 0.048503 -0.048503
v -0.027074 0.053725 -0.053725
v -0.038092 0.034297 0.059404
v -0.027074 0.037989 0.065800
v -0.038092 -0.048503 0.048503
v -0.027074 -0.053725 0.053725
v -0.038092 -0.059404 -0.034297
v -0.027074 -0.065800 -0.037989
v -0.038093 0.017753 -0.066256
v -0.027074 0.019665 -0.073390
v -0.038092 0.068593 0.000000
v -0.027074 0.065800 0.037989
v -0.038092 -0.017753 0.066256
v -0.038092 -0.068593 0.000000
v -0.038093 -0.017753 -0.066256
v -0.038093 0.059404 -0.034297
v -0.038092 0.017753 0.066256
v -0.038093 -0.048503 -0.048503
v -0.038093 0.034297 -0.059404
v -0.042790 0.046070 -0.026598
v -0.040931 0.028972 -0.028972
v -0.040931 0.035483 -0.020486
v -0.042790 0.026598 0.046070
v -0.042790 0.013768 -0.051384
v -0.042790 -0.053197 0.000000
v -0.042790 0.013768 0.051384
v -0.042790 0.026598 -0.046070
v -0.042790 -0.051384 -0.013768
v -0.042790 -0.000000 0.053197
v -0.042790 0.037616 -0.037616
v -0.042790 -0.046070 -0.026598
v -0.042790 -0.013768 0.051384
v -0.042790 -0.037616 -0.037616
v -0.042790 -0.026598 0.046070
v -0.042790 0.051384 -0.013768
v -0.042790 0.051384 0.013768
v -0.042790 -0.026598 -0.046070
v -0.042790 -0.037616 0.037616
v -0.042790 0.053197 0.000000
v -0.042790 0.046070 0.026598
v -0.042790 -0.013768 -0.051384
v -0.042790 -0.046070 0.026598
v -0.042790 0.037616 0.037616
v -0.042790 -0.000000 -0.053197
v -0.040931 -0.035483 0.020486
v -0.035332 -0.025289 0.006776
v -0.040931 -0.039577 0.010605
v -0.040931 -0.028972 -0.028972
v -0.040931 -0.010605 0.039577
v -0.040931 -0.020486 0.035484
v -0.040931 0.039577 -0.010605
v -0.040931 0.039577 0.010605
v -0.040931 -0.020486 -0.035483
v -0.040931 -0.028972 0.028972
v -0.040931 0.040973 0.000000
v -0.040931 0.035483 0.020486
v -0.040931 -0.010605 -0.039577
v -0.040931 0.028972 0.028972
v -0.040931 -0.000000 -0.040973
v -0.040931 0.020486 0.035484
v -0.040931 0.010605 -0.039577
v -0.040931 -0.040973 0.000000
v -0.040931 0.010605 0.039577
v -0.040931 0.020486 -0.035483
v -0.040931 -0.039577 -0.010605
v -0.040931 -0.000000 0.040973
v -0.040931 -0.035483 -0.020486
v -0.035332 -0.022673 -0.013090
v -0.024976 -0.014071 -0.014071
v -0.035332 -0.018513 -0.018513
v -0.035332 0.018513 0.018513
v -0.035332 0.013090 0.022673
v -0.035332 0.006776 -0.025289
v -0.035332 -0.026181 0.000000
v -0.035332 0.006776 0.025289
v -0.035332 0.013090 -0.022673
v -0.035332 -0.025289 -0.006776
v -0.035332 -0.000000 0.026181
v -0.035332 0.018513 -0.018513
v -0.035332 -0.006776 0.025289
v -0.035332 0.022673 -0.013090
v -0.035332 -0.013090 0.022673
v -0.035332 0.025289 -0.006776
v -0.035332 0.025289 0.006776
v -0.035332 -0.013090 -0.022673
v -0.035332 -0.018513 0.018513
v -0.035332 0.026181 0.000000
v -0.035332 0.022673 0.013090
v -0.035332 -0.006776 -0.025289
v -0.035332 -0.022673 0.013090
v -0.035332 -0.000000 -0.026181
v -0.024976 0.017233 -0.009950
v -0.024976 -0.000000 -0.019899
v -0.024976 -0.017233 0.009950
v -0.024976 -0.009950 0.017233
v -0.024976 0.019221 -0.005150
v -0.024976 0.019221 0.005150
v -0.024976 -0.009950 -0.017233
v -0.024976 -0.014071 0.014071
v -0.024976 0.019899 -0.000000
v -0.024976 0.017233 0.009950
v -0.024976 -0.005150 -0.019221
v -0.024976 0.014071 0.014071
v -0.024976 -0.019221 0.005150
v -0.024976 0.009950 0.017233
v -0.024976 0.005150 -0.019221
v -0.024976 -0.019899 -0.000000
v -0.024976 0.005150 0.019221
v -0.024976 0.009950 -0.017233
v -0.024976 -0.019221 -0.005150
v -0.024976 -0.000000 0.019899
v -0.024976 0.014071 -0.014071
v -0.024976 -0.017233 -0.009950
v -0.024976 -0.005150 0.019221
v 0.027074 0.075979 -0.000000
v 0.027074 0.073390 0.019665
v 0.027074 0.065800 0.037989
v 0.027074 0.053725 0.053725
v 0.027074 0.037989 0.065800
v 0.027074 0.019665 0.073390
v 0.027074 0.000000 0.075979
v 0.027074 -0.019665 0.073390
v 0.027074 -0.037989 0.065800
v 0.027074 -0.053725 0.053725
v 0.027074 -0.065800 0.037989
v 0.027074 -0.073390 0.019665
v 0.027074 -0.075979 -0.000000
v 0.027074 -0.073390 -0.019665
v 0.027074 -0.065800 -0.037989
v 0.027074 -0.053725 -0.053725
v 0.027074 -0.037989 -0.065800
v 0.027074 -0.019665 -0.073390
v 0.027074 0.000000 -0.075979
v 0.027074 0.019665 -0.073390
v 0.027074 0.037989 -0.065800
v 0.027074 0.053725 -0.053725
v 0.027074 0.053725 0.053725
v 0.038092 0.059404 0.034297
v 0.027074 0.065800 0.037989
v 0.027074 0.065800 -0.037989
v 0.027074 0.073390 -0.019665
v 0.042790 -0.051384 0.013768
v 0.038093 -0.059404 0.034297
v 0.038093 -0.066256 0.017753
v 0.038093 -0.034297 0.059404
v 0.027074 -0.019665 0.073390
v 0.027074 -0.037989 0.065800
v 0.027074 0.073390 0.019665
v 0.038092 0.068593 -0.000000
v 0.027074 0.075979 -0.000000
v 0.038092 -0.066256 -0.017753
v 0.027074 -0.075979 -0.000000
v 0.027074 -0.073390 -0.019665
v 0.038092 0.000000 -0.068593
v 0.027074 -0.019665 -0.073390
v 0.027074 0.000000 -0.075979
v 0.038092 0.066256 -0.017753
v 0.027074 0.065800 -0.037989
v 0.027074 0.073390 -0.019665
v 0.038093 0.000000 0.068593
v 0.027074 0.019665 0.073390
v 0.027074 0.000000 0.075979
v 0.027074 -0.065800 0.037989
v 0.027074 -0.073390 0.019665
v 0.038092 -0.034297 -0.059404
v 0.027074 -0.053725 -0.053725
v 0.027074 -0.037989 -0.065800
v 0.038092 0.048503 -0.048503
v 0.027074 0.037989 -0.065800
v 0.027074 0.053725 -0.053725
v 0.038093 0.034297 0.059404
v 0.027074 0.037989 0.065800
v 0.038093 -0.048503 0.048503
v 0.027074 -0.053725 0.053725
v 0.038092 -0.059404 -0.034297
v 0.027074 -0.065800 -0.037989
v 0.038092 0.017753 -0.066256
v 0.027074 0.019665 -0.073390
v 0.038093 -0.017753 0.066256
v 0.038092 -0.017753 -0.066256
v 0.038092 0.059404 -0.034297
v 0.038093 0.017753 0.066256
v 0.038092 -0.048503 -0.048503
v 0.042790 0.046070 -0.026598
v 0.040931 0.028972 -0.028972
v 0.042790 0.037616 -0.037616
v 0.042790 0.026598 0.046070
v 0.038093 0.048503 0.048503
v 0.042790 0.013768 -0.051384
v 0.038092 -0.068593 -0.000000
v 0.042790 0.026598 -0.046070
v 0.038092 0.034297 -0.059404
v 0.042790 -0.051384 -0.013768
v 0.042790 0.000000 0.053197
v 0.042790 -0.013768 0.051384
v 0.042790 -0.037616 -0.037616
v 0.042790 0.051384 -0.013768
v 0.042790 0.051384 0.013768
v 0.038092 0.066256 0.017753
v 0.042790 -0.026598 -0.046070
v 0.042790 -0.037616 0.037616
v 0.042790 0.053197 -0.000000
v 0.042790 -0.013768 -0.051384
v 0.042790 -0.046070 0.026598
v 0.042790 0.037616 0.037616
v 0.042790 0.000000 -0.053197
v 0.035332 -0.025289 0.006776
v 0.040931 -0.035483 0.020486
v 0.040931 -0.039577 0.010605
v 0.040931 -0.028972 -0.028972
v 0.042790 -0.046070 -0.026598
v 0.042790 -0.026598 0.046070
v 0.040931 -0.010605 0.039577
v 0.040931 0.035483 -0.020486
v 0.040931 0.039577 0.010605
v 0.040931 -0.028972 0.028972
v 0.040931 0.040973 -0.000000
v 0.040931 0.035483 0.020486
v 0.042790 0.046070 0.026598
v 0.040931 -0.010605 -0.039577
v 0.040931 0.028972 0.028972
v 0.040931 0.000000 -0.040973
v 0.040931 0.010605 -0.039577
v 0.040931 -0.040973 -0.000000
v 0.042790 -0.053197 -0.000000
v 0.040931 0.010605 0.039577
v 0.042790 0.013768 0.051384
v 0.040931 -0.039577 -0.010605
v 0.040931 0.000000 0.040973
v 0.035332 -0.018513 -0.018513
v 0.024976 -0.017233 -0.009950
v 0.035332 -0.022673 -0.013090
v 0.040931 0.020486 0.035483
v 0.035332 0.018513 0.018513
v 0.035332 0.006776 -0.025289
v 0.035332 -0.026181 -0.000000
v 0.035332 0.006776 0.025289
v 0.040931 0.020486 -0.035484
v 0.035332 -0.025289 -0.006776
v 0.035332 0.018513 -0.018513
v 0.040931 -0.035483 -0.020486
v 0.035332 -0.006776 0.025289
v 0.040931 -0.020486 0.035483
v 0.040931 0.039577 -0.010605
v 0.035332 0.022673 -0.013090
v 0.035332 0.025289 0.006776
v 0.035332 -0.013090 -0.022673
v 0.040931 -0.020486 -0.035484
v 0.035332 -0.018513 0.018513
v 0.035332 0.026181 -0.000000
v 0.035332 0.022673 0.013090
v 0.035332 0.000000 -0.026181
v 0.024976 -0.009950 -0.017233
v 0.024976 0.009950 -0.017233
v 0.024976 0.019899 -0.000000
v 0.024976 -0.009950 0.017233
v 0.035332 -0.013090 0.022673
v 0.024976 0.019221 -0.005150
v 0.035332 0.025289 -0.006776
v 0.024976 0.019221 0.005150
v 0.024976 -0.014071 -0.014071
v 0.024976 0.017233 0.009950
v 0.024976 -0.005150 -0.019221
v 0.035332 -0.006776 -0.025289
v 0.024976 -0.017233 0.009950
v 0.035332 -0.022673 0.013090
v 0.024976 0.014071 0.014071
v 0.024976 0.000000 -0.019899
v 0.024976 0.009950 0.017233
v 0.035332 0.013090 0.022673
v 0.024976 0.005150 -0.019221
v 0.024976 -0.019221 0.005150
v 0.024976 0.005150 0.019221
v 0.035332 0.013090 -0.022673
v 0.024976 -0.019221 -0.005150
v 0.024976 0.000000 0.019899
v 0.035332 0.000000 0.026181
v 0.024976 0.014071 -0.014071
v 0.024976 -0.005150 0.019221
v 0.024976 0.017233 -0.009950
v -0.027074 0.075979 0.000000
v 0.027074 0.075979 -0.000000
v 0.024976 -0.014071 0.014071
v 0.024976 -0.019899 -0.000000
vt 0.580091 0.335100
vt 0.640489 0.350867
vt 0.640489 0.335100
vt 0.580091 0.350867
vt 0.640489 0.366634
vt 0.580091 0.366634
vt 0.640489 0.382401
vt 0.580091 0.382401
vt 0.640489 0.398169
vt 0.580091 0.398169
vt 0.640489 0.413936
vt 0.580091 0.413936
vt 0.640489 0.429703
vt 0.580091 0.429703
vt 0.640489 0.445470
vt 0.580091 0.445470
vt 0.640489 0.461237
vt 0.580091 0.461237
vt 0.640489 0.477004
vt 0.580091 0.477004
vt 0.640489 0.492771
vt 0.580091 0.492771
vt 0.640489 0.508538
vt 0.580091 0.508538
vt 0.640489 0.524305
vt 0.580091 0.524305
vt 0.640489 0.540072
vt 0.580091 0.540072
vt 0.640489 0.555839
vt 0.580091 0.555839
vt 0.640489 0.571606
vt 0.580091 0.571606
vt 0.640489 0.587373
vt 0.580091 0.587373
vt 0.640489 0.603140
vt 0.580091 0.603140
vt 0.640489 0.618907
vt 0.580091 0.618907
vt 0.640489 0.634674
vt 0.580091 0.634674
vt 0.640489 0.650441
vt 0.580091 0.650441
vt 0.640489 0.666208
vt 0.580091 0.666208
vt 0.640489 0.681975
vt 0.774727 0.543749
vt 0.764391 0.577875
vt 0.778260 0.574043
vt 0.580091 0.681975
vt 0.640489 0.697742
vt 0.580091 0.697742
vt 0.640489 0.713509
vt 0.840578 0.635386
vt 0.822608 0.643312
vt 0.836967 0.649311
vt 0.853799 0.576530
vt 0.836629 0.607136
vt 0.864967 0.595881
vt 0.717966 0.576499
vt 0.751987 0.585167
vt 0.733776 0.560696
vt 0.853798 0.680736
vt 0.819787 0.672083
vt 0.838001 0.696539
vt 0.753131 0.707730
vt 0.752688 0.672629
vt 0.733772 0.696558
vt 0.700997 0.617450
vt 0.734795 0.607942
vt 0.706785 0.595857
vt 0.818658 0.549548
vt 0.819087 0.584642
vt 0.838005 0.560727
vt 0.870747 0.639804
vt 0.864966 0.661385
vt 0.797068 0.713504
vt 0.779135 0.683333
vt 0.774720 0.713509
vt 0.706785 0.661398
vt 0.731297 0.636263
vt 0.700997 0.639806
vt 0.792647 0.573931
vt 0.797075 0.543757
vt 0.840462 0.621001
vt 0.870747 0.617462
vt 0.807387 0.679378
vt 0.818652 0.707716
vt 0.742430 0.662537
vt 0.717964 0.680756
vt 0.741892 0.595423
vt 0.753136 0.549526
vt 0.829338 0.594735
vt 0.829876 0.661828
vt 0.765207 0.679722
vt 0.731182 0.621872
vt 0.806572 0.577546
vt 0.793522 0.683215
vt 0.735134 0.650133
vt 0.746609 0.623953
vt 0.756396 0.632896
vt 0.756296 0.625116
vt 0.790564 0.589354
vt 0.754809 0.653099
vt 0.817558 0.652317
vt 0.800569 0.591904
vt 0.749534 0.644221
vt 0.810350 0.659708
vt 0.809572 0.596957
vt 0.746737 0.634280
vt 0.801475 0.664982
vt 0.816961 0.604168
vt 0.791537 0.667779
vt 0.822232 0.613045
vt 0.749158 0.613945
vt 0.761422 0.597547
vt 0.781213 0.667908
vt 0.825027 0.622983
vt 0.754210 0.604938
vt 0.770300 0.592275
vt 0.771207 0.665361
vt 0.825155 0.633307
vt 0.780240 0.589480
vt 0.762201 0.660310
vt 0.815469 0.632144
vt 0.800454 0.634367
vt 0.813553 0.639683
vt 0.790153 0.658123
vt 0.809289 0.610193
vt 0.813262 0.616879
vt 0.758214 0.617576
vt 0.767448 0.605219
vt 0.782376 0.658223
vt 0.815370 0.624367
vt 0.762018 0.610789
vt 0.774135 0.601245
vt 0.774837 0.656305
vt 0.781622 0.599137
vt 0.768052 0.652502
vt 0.789400 0.599039
vt 0.762481 0.647072
vt 0.809751 0.646469
vt 0.796937 0.600958
vt 0.758505 0.640384
vt 0.804323 0.652039
vt 0.803721 0.604762
vt 0.797639 0.656014
vt 0.792139 0.642998
vt 0.786694 0.632873
vt 0.788211 0.644126
vt 0.783564 0.613136
vt 0.787651 0.613062
vt 0.773638 0.638388
vt 0.798476 0.637946
vt 0.791617 0.614050
vt 0.771529 0.634883
vt 0.795640 0.640890
vt 0.795192 0.616032
vt 0.770399 0.630952
vt 0.798132 0.618872
vt 0.770324 0.626863
vt 0.800238 0.622378
vt 0.771310 0.622893
vt 0.776132 0.616373
vt 0.784124 0.644199
vt 0.801366 0.626310
vt 0.773292 0.619315
vt 0.779635 0.614266
vt 0.780157 0.643210
vt 0.801439 0.630398
vt 0.776581 0.641228
vt 0.781636 0.628300
vt 0.783482 0.632176
vt 0.790117 0.628970
vt 0.789727 0.626759
vt 0.781855 0.627200
vt 0.783099 0.625372
vt 0.785578 0.632927
vt 0.790072 0.627838
vt 0.782353 0.626204
vt 0.784044 0.624765
vt 0.784480 0.632694
vt 0.785102 0.624398
vt 0.789911 0.630073
vt 0.786215 0.624327
vt 0.782640 0.631433
vt 0.789420 0.631079
vt 0.787305 0.624552
vt 0.782027 0.630494
vt 0.788684 0.631915
vt 0.788296 0.625060
vt 0.781683 0.629424
vt 0.787753 0.632525
vt 0.789126 0.625812
vt 0.700887 0.335100
vt 0.700887 0.350867
vt 0.700887 0.366634
vt 0.700887 0.382401
vt 0.700887 0.398169
vt 0.700887 0.413936
vt 0.700887 0.429703
vt 0.700887 0.445470
vt 0.700887 0.461237
vt 0.700887 0.477004
vt 0.700887 0.492771
vt 0.700887 0.508538
vt 0.700887 0.524305
vt 0.700887 0.540072
vt 0.700887 0.555839
vt 0.700887 0.571606
vt 0.700887 0.587373
vt 0.700887 0.603140
vt 0.700887 0.618907
vt 0.700887 0.634674
vt 0.700887 0.650441
vt 0.700887 0.666208
vt 0.837979 0.526684
vt 0.806547 0.509853
vt 0.818622 0.537856
vt 0.700887 0.681975
vt 0.700887 0.697742
vt 0.801453 0.422403
vt 0.819766 0.415295
vt 0.807361 0.408003
vt 0.836958 0.438070
vt 0.870750 0.447580
vt 0.864963 0.425989
vt 0.797034 0.543638
vt 0.778230 0.513349
vt 0.774687 0.543636
vt 0.779104 0.404059
vt 0.797026 0.373882
vt 0.774678 0.373889
vt 0.731282 0.451133
vt 0.706780 0.426009
vt 0.700998 0.447592
vt 0.764363 0.509513
vt 0.733750 0.526675
vt 0.753101 0.537850
vt 0.840456 0.466391
vt 0.864963 0.491524
vt 0.870750 0.469933
vt 0.837975 0.390830
vt 0.818615 0.379660
vt 0.742409 0.424864
vt 0.733747 0.390856
vt 0.717951 0.406658
vt 0.741870 0.491963
vt 0.706779 0.491520
vt 0.717951 0.510873
vt 0.829324 0.492666
vt 0.853786 0.510881
vt 0.829861 0.425551
vt 0.853784 0.406632
vt 0.765178 0.407675
vt 0.753096 0.379679
vt 0.731166 0.465520
vt 0.700997 0.469937
vt 0.840571 0.452000
vt 0.735117 0.437266
vt 0.751961 0.502219
vt 0.836619 0.480261
vt 0.752662 0.414771
vt 0.761397 0.489842
vt 0.761994 0.476602
vt 0.754188 0.482451
vt 0.816945 0.483228
vt 0.819066 0.502759
vt 0.746590 0.463440
vt 0.793492 0.404171
vt 0.749138 0.473446
vt 0.734778 0.479446
vt 0.781187 0.419483
vt 0.825016 0.464407
vt 0.825144 0.454081
vt 0.762177 0.427088
vt 0.770274 0.495116
vt 0.790538 0.498040
vt 0.792618 0.513465
vt 0.754787 0.434299
vt 0.817543 0.435066
vt 0.780213 0.497912
vt 0.749514 0.443176
vt 0.810331 0.427675
vt 0.809552 0.490439
vt 0.746718 0.453116
vt 0.792121 0.444391
vt 0.804305 0.435347
vt 0.797618 0.431373
vt 0.768029 0.434894
vt 0.771181 0.422034
vt 0.822595 0.444073
vt 0.815457 0.455243
vt 0.767424 0.482172
vt 0.789375 0.488353
vt 0.809736 0.440917
vt 0.781597 0.488254
vt 0.796914 0.486435
vt 0.800545 0.495491
vt 0.758485 0.447012
vt 0.803701 0.482631
vt 0.756376 0.454500
vt 0.756276 0.462278
vt 0.790130 0.429266
vt 0.791512 0.419609
vt 0.813248 0.470512
vt 0.822219 0.474349
vt 0.782352 0.429169
vt 0.815357 0.463023
vt 0.776560 0.446169
vt 0.784467 0.454694
vt 0.780136 0.444185
vt 0.809272 0.477200
vt 0.795172 0.471355
vt 0.770302 0.460535
vt 0.788191 0.443264
vt 0.800224 0.465010
vt 0.758192 0.469817
vt 0.784103 0.443193
vt 0.773266 0.468079
vt 0.774814 0.431089
vt 0.801428 0.456989
vt 0.813540 0.447704
vt 0.774110 0.486146
vt 0.776104 0.471021
vt 0.787625 0.474326
vt 0.773619 0.449009
vt 0.762460 0.440325
vt 0.798462 0.449442
vt 0.783536 0.474254
vt 0.791594 0.473337
vt 0.770378 0.456446
vt 0.782647 0.455990
vt 0.781807 0.460205
vt 0.785056 0.462977
vt 0.789909 0.457328
vt 0.800442 0.453020
vt 0.783985 0.462640
vt 0.779607 0.473127
vt 0.786177 0.463048
vt 0.783471 0.455217
vt 0.787276 0.462819
vt 0.782009 0.456926
vt 0.771509 0.452514
vt 0.788664 0.455481
vt 0.795624 0.446499
vt 0.788276 0.462307
vt 0.781644 0.457991
vt 0.789105 0.461544
vt 0.798115 0.468515
vt 0.781575 0.459109
vt 0.787734 0.454863
vt 0.789733 0.460611
vt 0.771287 0.464502
vt 0.785558 0.454455
vt 0.790088 0.459546
vt 0.801354 0.461078
vt 0.782302 0.461205
vt 0.790149 0.458426
vt 0.783045 0.462036
vt 0.580091 0.713509
vt 0.700887 0.713509
vt 0.789412 0.456320
vt 0.786672 0.454516
vn -0.1158 0.9933 0.0000
vn -0.0000 0.9659 0.2588
vn 0.0000 1.0000 -0.0000
vn -0.1166 0.9593 0.2571
vn 0.0000 0.8660 0.5000
vn -0.1166 0.8601 0.4966
vn 0.0000 0.7071 0.7071
vn -0.1166 0.7023 0.7023
vn 0.0000 0.5000 0.8660
vn -0.1166 0.4966 0.8601
vn 0.0000 0.2588 0.9659
vn -0.1166 0.2570 0.9593
vn 0.0000 -0.0000 1.0000
vn -0.1166 -0.0000 0.9932
vn 0.0000 -0.2588 0.9659
vn -0.1166 -0.2571 0.9593
vn 0.0000 -0.5000 0.8660
vn -0.1166 -0.4966 0.8601
vn 0.0000 -0.7071 0.7071
vn -0.1166 -0.7023 0.7023
vn 0.0000 -0.8660 0.5000
vn -0.1166 -0.8601 0.4966
vn 0.0000 -0.9659 0.2588
vn -0.1166 -0.9593 0.2570
vn 0.0000 -1.0000 -0.0000
vn -0.1166 -0.9932 -0.0000
vn 0.0000 -0.9659 -0.2588
vn -0.1166 -0.9593 -0.2570
vn -0.0000 -0.8660 -0.5000
vn -0.1166 -0.8601 -0.4966
vn -0.0000 -0.7071 -0.7071
vn -0.1166 -0.7023 -0.7023
vn -0.0000 -0.5000 -0.8660
vn -0.1166 -0.4966 -0.8601
vn -0.0000 -0.2588 -0.9659
vn -0.1166 -0.2570 -0.9593
vn -0.0000 -0.0000 -1.0000
vn -0.1166 -0.0000 -0.9932
vn -0.0000 0.2588 -0.9659
vn -0.1166 0.2571 -0.9593
vn -0.0000 0.5000 -0.8660
vn -0.1166 0.4966 -0.8601
vn -0.0000 0.7071 -0.7071
vn -0.1166 0.7023 -0.7023
vn -0.0000 0.8660 -0.5000
vn -0.4547 0.6298 0.6298
vn -0.7899 0.5310 0.3066
vn -0.7899 0.4336 0.4336
vn -0.1166 0.8601 -0.4966
vn -0.0000 0.9659 -0.2588
vn -0.1166 0.9593 -0.2571
vn -0.7899 -0.5310 0.3066
vn -0.9959 -0.0878 0.0235
vn -0.7899 -0.5923 0.1587
vn -0.4551 -0.2305 0.8601
vn -0.7899 -0.3066 0.5310
vn -0.4551 -0.4452 0.7712
vn -0.4551 0.8905 -0.0000
vn -0.7899 0.5923 0.1587
vn -0.4551 0.8601 0.2305
vn -0.4551 -0.8905 0.0000
vn -0.7899 -0.5923 -0.1587
vn -0.4551 -0.8601 -0.2305
vn -0.4547 -0.2305 -0.8603
vn -0.7899 -0.0000 -0.6132
vn -0.4551 0.0000 -0.8905
vn -0.4551 0.7712 -0.4452
vn -0.7899 0.5923 -0.1587
vn -0.4551 0.8601 -0.2305
vn -0.4551 0.2305 0.8601
vn -0.7899 -0.0000 0.6132
vn -0.4551 -0.0000 0.8905
vn -0.4551 -0.7712 0.4452
vn -0.4551 -0.8601 0.2305
vn -0.4551 -0.6296 -0.6297
vn -0.7899 -0.3066 -0.5310
vn -0.4556 -0.4451 -0.7709
vn -0.4551 0.4452 -0.7712
vn -0.7899 0.4336 -0.4336
vn -0.4551 0.6297 -0.6296
vn -0.7899 0.3066 0.5310
vn -0.4551 0.4452 0.7712
vn -0.7899 -0.4336 0.4336
vn -0.4551 -0.6296 0.6297
vn -0.7899 -0.5310 -0.3066
vn -0.4551 -0.7712 -0.4452
vn -0.7899 0.1587 -0.5923
vn -0.4551 0.2305 -0.8601
vn -0.7899 0.6132 0.0000
vn -0.4556 0.7709 0.4451
vn -0.7899 -0.1587 0.5923
vn -0.7899 -0.6132 0.0000
vn -0.7899 -0.1587 -0.5923
vn -0.7899 0.5310 -0.3066
vn -0.7899 0.1587 0.5923
vn -0.7899 -0.4336 -0.4336
vn -0.7899 0.3066 -0.5310
vn -0.9959 0.0787 -0.0454
vn -0.9694 -0.1735 0.1735
vn -0.9694 -0.2125 0.1227
vn -0.9959 0.0454 0.0787
vn -0.9959 0.0235 -0.0878
vn -0.9959 -0.0909 0.0000
vn -0.9959 0.0235 0.0878
vn -0.9959 0.0454 -0.0787
vn -0.9959 -0.0878 -0.0235
vn -0.9959 -0.0000 0.0909
vn -0.9959 0.0643 -0.0643
vn -0.9959 -0.0787 -0.0454
vn -0.9959 -0.0235 0.0878
vn -0.9959 -0.0643 -0.0643
vn -0.9959 -0.0454 0.0787
vn -0.9959 0.0878 -0.0235
vn -0.9959 0.0878 0.0235
vn -0.9959 -0.0454 -0.0787
vn -0.9959 -0.0643 0.0643
vn -0.9959 0.0909 0.0000
vn -0.9959 0.0787 0.0454
vn -0.9959 -0.0235 -0.0878
vn -0.9959 -0.0787 0.0454
vn -0.9959 0.0643 0.0643
vn -0.9959 -0.0000 -0.0909
vn -0.9694 0.2125 -0.1227
vn -0.7824 0.6016 -0.1612
vn -0.9694 0.2370 -0.0635
vn -0.9694 0.1735 0.1735
vn -0.9694 0.0635 -0.2370
vn -0.9694 0.1227 -0.2125
vn -0.9694 -0.2370 0.0635
vn -0.9694 -0.2370 -0.0635
vn -0.9694 0.1227 0.2125
vn -0.9694 0.1735 -0.1735
vn -0.9694 -0.2453 0.0000
vn -0.9694 -0.2125 -0.1227
vn -0.9694 0.0635 0.2370
vn -0.9694 -0.1735 -0.1735
vn -0.9694 -0.0000 0.2453
vn -0.9694 -0.1227 -0.2125
vn -0.9694 -0.0635 0.2370
vn -0.9694 0.2453 0.0000
vn -0.9694 -0.0635 -0.2370
vn -0.9694 -0.1227 0.2125
vn -0.9694 0.2370 0.0635
vn -0.9694 0.0000 -0.2453
vn -0.9694 0.2125 0.1227
vn -0.7824 0.5394 0.3114
vn -0.8539 0.3680 0.3680
vn -0.7824 0.4404 0.4404
vn -0.7824 -0.4404 -0.4404
vn -0.7824 -0.3114 -0.5394
vn -0.7824 -0.1612 0.6016
vn -0.7824 0.6228 0.0000
vn -0.7824 -0.1612 -0.6016
vn -0.7824 -0.3114 0.5394
vn -0.7824 0.6016 0.1612
vn -0.7824 0.0000 -0.6228
vn -0.7824 -0.4404 0.4404
vn -0.7824 0.1612 -0.6016
vn -0.7824 -0.5394 0.3114
vn -0.7824 0.3114 -0.5394
vn -0.7824 -0.6016 0.1612
vn -0.7824 -0.6016 -0.1612
vn -0.7824 0.3114 0.5394
vn -0.7824 0.4404 -0.4404
vn -0.7824 -0.6228 0.0000
vn -0.7824 -0.5394 -0.3114
vn -0.7824 0.1612 0.6016
vn -0.7824 0.5394 -0.3114
vn -0.7824 -0.0000 0.6228
vn -0.8539 -0.4507 0.2602
vn -0.8539 -0.0000 0.5204
vn -0.8539 0.4507 -0.2602
vn -0.8539 0.2602 -0.4507
vn -0.8539 -0.5027 0.1347
vn -0.8539 -0.5027 -0.1347
vn -0.8539 0.2602 0.4507
vn -0.8539 0.3680 -0.3680
vn -0.8539 -0.5204 0.0000
vn -0.8539 -0.4507 -0.2602
vn -0.8539 0.1347 0.5027
vn -0.8539 -0.3680 -0.3680
vn -0.8539 0.5027 -0.1347
vn -0.8539 -0.2602 -0.4507
vn -0.8539 -0.1347 0.5027
vn -0.8539 0.5204 0.0000
vn -0.8539 -0.1347 -0.5027
vn -0.8539 -0.2602 0.4507
vn -0.8539 0.5027 0.1347
vn -0.8539 -0.0000 -0.5204
vn -0.8539 -0.3680 0.3680
vn -0.8539 0.4507 0.2602
vn -0.8539 0.1347 -0.5027
vn 0.1158 0.9933 0.0000
vn 0.1166 0.9593 0.2571
vn 0.1166 0.8601 0.4966
vn 0.1166 0.7023 0.7023
vn 0.1166 0.4966 0.8601
vn 0.1166 0.2570 0.9593
vn 0.1166 -0.0000 0.9932
vn 0.1166 -0.2571 0.9593
vn 0.1166 -0.4966 0.8601
vn 0.1166 -0.7023 0.7023
vn 0.1166 -0.8601 0.4966
vn 0.1166 -0.9593 0.2570
vn 0.1166 -0.9932 -0.0000
vn 0.1166 -0.9593 -0.2571
vn 0.1166 -0.8601 -0.4966
vn 0.1166 -0.7023 -0.7023
vn 0.1166 -0.4966 -0.8601
vn 0.1166 -0.2570 -0.9593
vn 0.1166 0.0000 -0.9932
vn 0.1166 0.2571 -0.9593
vn 0.1166 0.4966 -0.8601
vn 0.1166 0.7023 -0.7023
vn 0.4547 0.6298 0.6298
vn 0.7899 0.5310 0.3066
vn 0.4556 0.7709 0.4451
vn 0.1166 0.8601 -0.4966
vn 0.1166 0.9593 -0.2570
vn 0.9959 -0.0878 0.0235
vn 0.7899 -0.5310 0.3066
vn 0.7899 -0.5923 0.1587
vn 0.7899 -0.3066 0.5310
vn 0.4551 -0.2305 0.8601
vn 0.4551 -0.4452 0.7712
vn 0.4547 0.8603 0.2305
vn 0.7899 0.6132 -0.0000
vn 0.4556 0.8902 -0.0000
vn 0.7899 -0.5923 -0.1587
vn 0.4547 -0.8906 -0.0000
vn 0.4551 -0.8601 -0.2305
vn 0.7899 0.0000 -0.6132
vn 0.4551 -0.2305 -0.8601
vn 0.4551 0.0000 -0.8905
vn 0.7899 0.5923 -0.1587
vn 0.4551 0.7712 -0.4452
vn 0.4551 0.8601 -0.2305
vn 0.7899 0.0000 0.6132
vn 0.4551 0.2305 0.8601
vn 0.4551 -0.0000 0.8905
vn 0.4551 -0.7712 0.4452
vn 0.4556 -0.8599 0.2304
vn 0.7899 -0.3066 -0.5310
vn 0.4551 -0.6296 -0.6297
vn 0.4551 -0.4452 -0.7712
vn 0.7899 0.4336 -0.4336
vn 0.4547 0.4453 -0.7713
vn 0.4551 0.6297 -0.6296
vn 0.7899 0.3066 0.5310
vn 0.4551 0.4452 0.7712
vn 0.7899 -0.4336 0.4336
vn 0.4551 -0.6296 0.6297
vn 0.7899 -0.5310 -0.3066
vn 0.4551 -0.7712 -0.4452
vn 0.7899 0.1587 -0.5923
vn 0.4556 0.2304 -0.8598
vn 0.7899 -0.1587 0.5923
vn 0.7899 -0.1587 -0.5923
vn 0.7899 0.5310 -0.3066
vn 0.7899 0.1587 0.5923
vn 0.7899 -0.4336 -0.4336
vn 0.9959 0.0787 -0.0454
vn 0.9694 -0.1735 0.1735
vn 0.9959 0.0643 -0.0643
vn 0.9959 0.0454 0.0787
vn 0.7899 0.4336 0.4336
vn 0.9959 0.0235 -0.0878
vn 0.7899 -0.6132 -0.0000
vn 0.9959 0.0454 -0.0787
vn 0.7899 0.3066 -0.5310
vn 0.9959 -0.0878 -0.0235
vn 0.9959 0.0000 0.0909
vn 0.9959 -0.0235 0.0878
vn 0.9959 -0.0643 -0.0643
vn 0.9959 0.0878 -0.0235
vn 0.9959 0.0878 0.0235
vn 0.7899 0.5923 0.1587
vn 0.9959 -0.0454 -0.0787
vn 0.9959 -0.0643 0.0643
vn 0.9959 0.0909 -0.0000
vn 0.9959 -0.0235 -0.0878
vn 0.9959 -0.0787 0.0454
vn 0.9959 0.0643 0.0643
vn 0.9959 0.0000 -0.0909
vn 0.7824 0.6016 -0.1612
vn 0.9694 0.2125 -0.1227
vn 0.9694 0.2370 -0.0635
vn 0.9694 0.1735 0.1735
vn 0.9959 -0.0787 -0.0454
vn 0.9959 -0.0454 0.0787
vn 0.9694 0.0635 -0.2370
vn 0.9694 -0.2125 0.1227
vn 0.9694 -0.2370 -0.0635
vn 0.9694 0.1735 -0.1735
vn 0.9694 -0.2453 -0.0000
vn 0.9694 -0.2125 -0.1227
vn 0.9959 0.0787 0.0454
vn 0.9694 0.0635 0.2370
vn 0.9694 -0.1735 -0.1735
vn 0.9694 -0.0000 0.2453
vn 0.9694 -0.0635 0.2370
vn 0.9694 0.2453 -0.0000
vn 0.9959 -0.0909 -0.0000
vn 0.9694 -0.0635 -0.2370
vn 0.9959 0.0235 0.0878
vn 0.9694 0.2370 0.0635
vn 0.9694 0.0000 -0.2453
vn 0.7824 0.4404 0.4404
vn 0.8539 0.4507 0.2602
vn 0.7824 0.5394 0.3114
vn 0.9694 -0.1227 -0.2125
vn 0.7824 -0.4404 -0.4404
vn 0.7824 -0.1612 0.6016
vn 0.7824 0.6228 -0.0000
vn 0.7824 -0.1612 -0.6016
vn 0.9694 -0.1227 0.2125
vn 0.7824 0.6016 0.1612
vn 0.7824 -0.4404 0.4404
vn 0.9694 0.2125 0.1227
vn 0.7824 0.1612 -0.6016
vn 0.9694 0.1227 -0.2125
vn 0.9694 -0.2370 0.0635
vn 0.7824 -0.5394 0.3114
vn 0.7824 -0.6016 -0.1612
vn 0.7824 0.3114 0.5394
vn 0.9694 0.1227 0.2125
vn 0.7824 0.4404 -0.4404
vn 0.7824 -0.6228 -0.0000
vn 0.7824 -0.5394 -0.3114
vn 0.7824 -0.0000 0.6228
vn 0.8539 0.2602 0.4507
vn 0.8539 -0.2602 0.4507
vn 0.8539 -0.5204 -0.0000
vn 0.8539 0.2602 -0.4507
vn 0.7824 0.3114 -0.5394
vn 0.8539 -0.5027 0.1347
vn 0.7824 -0.6016 0.1612
vn 0.8539 -0.5027 -0.1347
vn 0.8539 0.3680 0.3680
vn 0.8539 -0.4507 -0.2602
vn 0.8539 0.1347 0.5027
vn 0.7824 0.1612 0.6016
vn 0.8539 0.4507 -0.2602
vn 0.7824 0.5394 -0.3114
vn 0.8539 -0.3680 -0.3680
vn 0.8539 -0.0000 0.5204
vn 0.8539 -0.2602 -0.4507
vn 0.7824 -0.3114 -0.5394
vn 0.8539 -0.1347 0.5027
vn 0.8539 0.5027 -0.1347
vn 0.8539 -0.1347 -0.5027
vn 0.7824 -0.3114 0.5394
vn 0.8539 0.5027 0.1347
vn 0.8539 0.0000 -0.5204
vn 0.7824 -0.0000 -0.6228
vn 0.8539 -0.3680 0.3680
vn 0.8539 0.1347 -0.5027
vn 0.8539 -0.4507 0.2602
vn 0.8539 0.3680 -0.3680
vn 0.8539 0.5204 -0.0000
s 1
f 1/1/1 2/2/2 3/3/3
f 4/4/4 5/5/5 2/2/2
f 6/6/6 7/7/7 5/5/5
f 8/8/8 9/9/9 7/7/7
f 10/10/10 11/11/11 9/9/9
f 12/12/12 13/13/13 11/11/11
f 14/14/14 15/15/15 13/13/13
f 16/16/16 17/17/17 15/15/15
f 18/18/18 19/19/19 17/17/17
f 20/20/20 21/21/21 19/19/19
f 22/22/22 23/23/23 21/21/21
f 24/24/24 25/25/25 23/23/23
f 26/26/26 27/27/27 25/25/25
f 28/28/28 29/29/29 27/27/27
f 30/30/30 31/31/31 29/29/29
f 32/32/32 33/33/33 31/31/31
f 34/34/34 35/35/35 33/33/33
f 36/36/36 37/37/37 35/35/35
f 38/38/38 39/39/39 37/37/37
f 40/40/40 41/41/41 39/39/39
f 42/42/42 43/43/43 41/41/41
f 44/44/44 45/45/45 43/43/43
f 46/46/46 47/47/47 48/48/48
f 49/49/49 50/50/50 45/45/45
f 51/51/51 52/52/3 50/50/50
f 53/53/52 54/54/53 55/55/54
f 56/56/55 57/57/56 58/58/57
f 59/59/58 60/60/59 61/61/60
f 62/62/61 63/63/62 64/64/63
f 65/65/64 66/66/65 67/67/66
f 68/68/67 69/69/68 70/70/69
f 71/71/70 72/72/71 73/73/72
f 74/74/73 55/55/54 75/75/74
f 76/76/75 77/77/76 78/78/77
f 79/79/78 80/80/79 81/81/80
f 46/46/46 82/82/81 83/83/82
f 58/58/57 84/84/83 85/85/84
f 64/64/63 86/86/85 87/87/86
f 67/67/66 88/88/87 89/89/88
f 70/70/69 90/90/89 59/59/58
f 61/61/60 47/47/47 91/91/90
f 73/73/72 92/92/91 56/56/55
f 75/75/74 93/93/92 62/62/61
f 65/65/64 77/77/76 94/94/93
f 81/81/80 95/95/94 68/68/67
f 83/83/82 96/96/95 71/71/70
f 85/85/84 53/53/52 74/74/73
f 87/87/86 97/97/96 76/76/75
f 89/89/88 98/98/97 79/79/78
f 99/99/98 100/100/99 101/101/100
f 48/48/48 102/102/101 82/82/81
f 66/66/65 103/103/102 88/88/87
f 55/55/54 104/104/103 93/93/92
f 96/96/95 102/102/101 105/105/104
f 88/88/87 106/106/105 98/98/97
f 93/93/92 107/107/106 63/63/62
f 96/96/95 108/108/107 72/72/71
f 98/98/97 109/109/108 80/80/79
f 86/86/85 107/107/106 110/110/109
f 72/72/71 111/111/110 92/92/91
f 80/80/79 99/99/98 95/95/94
f 86/86/85 112/112/111 97/97/96
f 57/57/56 111/111/110 113/113/112
f 95/95/94 114/114/113 69/69/68
f 90/90/89 115/115/114 60/60/59
f 97/97/96 116/116/115 77/77/76
f 57/57/56 117/117/116 84/84/83
f 69/69/68 118/118/117 90/90/89
f 47/47/47 115/115/114 119/119/118
f 77/77/76 120/120/119 94/94/93
f 84/84/83 121/121/120 53/53/52
f 48/48/48 119/119/118 122/122/121
f 94/94/93 123/123/122 66/66/65
f 124/124/123 125/125/124 126/126/125
f 110/110/109 127/127/126 112/112/111
f 113/113/112 128/128/127 129/129/128
f 114/114/113 101/101/100 130/130/129
f 118/118/117 131/131/130 115/115/114
f 116/116/115 127/127/126 132/132/131
f 113/113/112 133/133/132 117/117/116
f 114/114/113 134/134/133 118/118/117
f 115/115/114 135/135/134 119/119/118
f 116/116/115 136/136/135 120/120/119
f 117/117/116 124/124/123 121/121/120
f 119/119/118 137/137/136 122/122/121
f 120/120/119 138/138/137 123/123/122
f 121/121/120 126/126/125 54/54/53
f 102/102/101 137/137/136 139/139/138
f 123/123/122 140/140/139 103/103/102
f 54/54/53 141/141/140 104/104/103
f 102/102/101 142/142/141 105/105/104
f 106/106/105 140/140/139 143/143/142
f 104/104/103 144/144/143 107/107/106
f 105/105/104 145/145/144 108/108/107
f 106/106/105 100/100/99 109/109/108
f 110/110/109 144/144/143 146/146/145
f 111/111/110 145/145/144 128/128/127
f 147/147/146 148/148/147 149/149/148
f 139/139/138 150/150/149 151/151/150
f 138/138/137 152/152/151 140/140/139
f 126/126/125 153/153/152 141/141/140
f 139/139/138 154/154/153 142/142/141
f 143/143/142 152/152/151 155/155/154
f 141/141/140 156/156/155 144/144/143
f 145/145/144 154/154/153 157/157/156
f 143/143/142 158/158/157 100/100/99
f 144/144/143 147/147/146 146/146/145
f 145/145/144 159/159/158 128/128/127
f 100/100/99 160/160/159 101/101/100
f 146/146/145 149/149/148 127/127/126
f 128/128/127 161/161/160 129/129/128
f 130/130/129 160/160/159 162/162/161
f 134/134/133 163/163/162 131/131/130
f 127/127/126 164/164/163 132/132/131
f 129/129/128 165/165/164 133/133/132
f 134/134/133 162/162/161 166/166/165
f 131/131/130 167/167/166 135/135/134
f 132/132/131 168/168/167 136/136/135
f 133/133/132 169/169/168 124/124/123
f 135/135/134 150/150/149 137/137/136
f 136/136/135 170/170/169 138/138/137
f 171/171/170 172/172/171 173/173/172
f 159/159/158 174/174/173 161/161/160
f 160/160/159 175/175/174 162/162/161
f 166/166/165 176/176/175 163/163/162
f 164/164/163 148/148/147 177/177/176
f 165/165/164 174/174/173 178/178/177
f 162/162/161 179/179/178 166/166/165
f 163/163/162 180/180/179 167/167/166
f 164/164/163 181/181/180 168/168/167
f 165/165/164 173/173/172 169/169/168
f 167/167/166 182/182/181 150/150/149
f 170/170/169 181/181/180 172/172/171
f 169/169/168 183/183/182 125/125/124
f 150/150/149 184/184/183 151/151/150
f 170/170/169 185/185/184 152/152/151
f 153/153/152 183/183/182 186/186/185
f 151/151/150 187/187/186 154/154/153
f 152/152/151 188/188/187 155/155/154
f 153/153/152 189/189/188 156/156/155
f 154/154/153 190/190/189 157/157/156
f 155/155/154 191/191/190 158/158/157
f 147/147/146 189/189/188 192/192/191
f 159/159/158 190/190/189 193/193/192
f 158/158/157 171/171/170 160/160/159
f 2/2/2 194/194/193 3/3/3
f 5/5/5 195/195/194 2/2/2
f 7/7/7 196/196/195 5/5/5
f 9/9/9 197/197/196 7/7/7
f 11/11/11 198/198/197 9/9/9
f 13/13/13 199/199/198 11/11/11
f 15/15/15 200/200/199 13/13/13
f 17/17/17 201/201/200 15/15/15
f 19/19/19 202/202/201 17/17/17
f 21/21/21 203/203/202 19/19/19
f 23/23/23 204/204/203 21/21/21
f 25/25/25 205/205/204 23/23/23
f 27/27/27 206/206/205 25/25/25
f 29/29/29 207/207/206 27/27/27
f 31/31/31 208/208/207 29/29/29
f 33/33/33 209/209/208 31/31/31
f 35/35/35 210/210/209 33/33/33
f 37/37/37 211/211/210 35/35/35
f 39/39/39 212/212/211 37/37/37
f 41/41/41 213/213/212 39/39/39
f 43/43/43 214/214/213 41/41/41
f 45/45/45 215/215/214 43/43/43
f 216/216/215 217/217/216 218/218/217
f 50/50/50 219/219/218 45/45/45
f 52/52/3 220/220/219 50/50/50
f 221/221/220 222/222/221 223/223/222
f 224/224/223 225/225/224 226/226/225
f 227/227/226 228/228/227 229/229/228
f 230/230/229 231/231/230 232/232/231
f 233/233/232 234/234/233 235/235/234
f 236/236/235 237/237/236 238/238/237
f 239/239/238 240/240/239 241/241/240
f 223/223/222 242/242/241 243/243/242
f 244/244/243 245/245/244 246/246/245
f 247/247/246 248/248/247 249/249/248
f 250/250/249 216/216/215 251/251/250
f 252/252/251 226/226/225 253/253/252
f 254/254/253 232/232/231 255/255/254
f 256/256/255 235/235/234 257/257/256
f 228/228/227 238/238/237 229/229/228
f 217/217/216 227/227/226 218/218/217
f 258/258/257 241/241/240 225/225/224
f 231/231/230 223/223/222 243/243/242
f 259/259/258 246/246/245 234/234/233
f 260/260/259 249/249/248 237/237/236
f 261/261/260 251/251/250 240/240/239
f 222/222/221 253/253/252 242/242/241
f 262/262/261 255/255/254 245/245/244
f 248/248/247 256/256/255 257/257/256
f 263/263/262 264/264/263 265/265/264
f 266/266/265 267/267/266 250/250/249
f 268/268/267 233/233/232 256/256/255
f 269/269/268 221/221/220 223/223/222
f 261/261/260 266/266/265 250/250/249
f 270/270/269 256/256/255 271/271/270
f 272/272/271 269/269/268 230/230/229
f 273/273/272 261/261/260 239/239/238
f 265/265/264 271/271/270 247/247/246
f 254/254/253 272/272/271 230/230/229
f 274/274/273 239/239/238 258/258/257
f 260/260/259 265/265/264 247/247/246
f 275/275/274 254/254/253 262/262/261
f 224/224/223 274/274/273 258/258/257
f 276/276/275 260/260/259 236/236/235
f 277/277/276 228/228/227 278/278/277
f 279/279/278 262/262/261 244/244/243
f 280/280/279 224/224/223 252/252/251
f 281/281/280 236/236/235 228/228/227
f 217/217/216 277/277/276 278/278/277
f 282/282/281 244/244/243 259/259/258
f 283/283/282 252/252/251 222/222/221
f 284/284/283 217/217/216 267/267/266
f 285/285/284 259/259/258 233/233/232
f 286/286/285 287/287/286 288/288/287
f 289/289/288 290/290/289 275/275/274
f 291/291/290 292/292/291 274/274/273
f 276/276/275 293/293/292 263/263/262
f 294/294/293 281/281/280 277/277/276
f 279/279/278 289/289/288 275/275/274
f 295/295/294 291/291/290 280/280/279
f 296/296/295 276/276/275 281/281/280
f 297/297/296 277/277/276 298/298/297
f 299/299/298 279/279/278 282/282/281
f 287/287/286 280/280/279 283/283/282
f 300/300/299 298/298/297 284/284/283
f 301/301/300 282/282/281 285/285/284
f 288/288/287 283/283/282 221/221/220
f 266/266/265 300/300/299 284/284/283
f 302/302/301 285/285/284 268/268/267
f 303/303/302 221/221/220 304/304/303
f 305/305/304 266/266/265 306/306/305
f 270/270/269 302/302/301 268/268/267
f 307/307/306 304/304/303 272/272/271
f 308/308/307 306/306/305 273/273/272
f 264/264/263 270/270/269 265/265/264
f 290/290/289 307/307/306 272/272/271
f 292/292/291 273/273/272 274/274/273
f 309/309/308 310/310/309 311/311/310
f 312/312/311 313/313/312 300/300/299
f 314/314/313 301/301/300 302/302/301
f 315/315/314 288/288/287 303/303/302
f 316/316/315 312/312/311 305/305/304
f 317/317/316 314/314/313 302/302/301
f 318/318/317 303/303/302 307/307/306
f 308/308/307 316/316/315 305/305/304
f 319/319/318 317/317/316 264/264/263
f 320/320/319 318/318/317 307/307/306
f 321/321/320 308/308/307 292/292/291
f 293/293/292 319/319/318 264/264/263
f 309/309/308 320/320/319 289/289/288
f 322/322/321 321/321/320 292/292/291
f 323/323/322 324/324/323 293/293/292
f 325/325/324 296/296/295 294/294/293
f 326/326/325 289/289/288 327/327/326
f 328/328/327 322/322/321 295/295/294
f 329/329/328 323/323/322 296/296/295
f 330/330/329 294/294/293 297/297/296
f 299/299/298 326/326/325 327/327/326
f 287/287/286 328/328/327 295/295/294
f 313/313/312 297/297/296 300/300/299
f 331/331/330 299/299/298 301/301/300
f 332/332/331 333/333/332 334/334/333
f 335/335/334 321/321/320 336/336/335
f 337/337/336 324/324/323 338/338/337
f 339/339/338 329/329/328 325/325/324
f 326/326/325 340/340/339 309/309/308
f 328/328/327 335/335/334 336/336/335
f 334/334/333 338/338/337 329/329/328
f 341/341/340 325/325/324 330/330/329
f 342/342/341 326/326/325 343/343/342
f 344/344/343 328/328/327 345/345/344
f 346/346/345 330/330/329 313/313/312
f 347/347/346 343/343/342 331/331/330
f 286/286/285 344/344/343 345/345/344
f 348/348/347 313/313/312 349/349/348
f 350/350/349 331/331/330 314/314/313
f 315/315/314 351/351/350 286/286/285
f 352/352/351 349/349/348 316/316/315
f 333/333/332 314/314/313 353/353/352
f 354/354/353 315/315/314 318/318/317
f 355/355/354 316/316/315 356/356/355
f 357/357/356 353/353/352 319/319/318
f 311/311/310 354/354/353 318/318/317
f 358/358/357 356/356/355 321/321/320
f 359/359/358 319/319/318 324/324/323
f 1/1/1 4/4/4 2/2/2
f 4/4/4 6/6/6 5/5/5
f 6/6/6 8/8/8 7/7/7
f 8/8/8 10/10/10 9/9/9
f 10/10/10 12/12/12 11/11/11
f 12/12/12 14/14/14 13/13/13
f 14/14/14 16/16/16 15/15/15
f 16/16/16 18/18/18 17/17/17
f 18/18/18 20/20/20 19/19/19
f 20/20/20 22/22/22 21/21/21
f 22/22/22 24/24/24 23/23/23
f 24/24/24 26/26/26 25/25/25
f 26/26/26 28/28/28 27/27/27
f 28/28/28 30/30/30 29/29/29
f 30/30/30 32/32/32 31/31/31
f 32/32/32 34/34/34 33/33/33
f 34/34/34 36/36/36 35/35/35
f 36/36/36 38/38/38 37/37/37
f 38/38/38 40/40/40 39/39/39
f 40/40/40 42/42/42 41/41/41
f 42/42/42 44/44/44 43/43/43
f 44/44/44 49/49/49 45/45/45
f 46/46/46 91/91/90 47/47/47
f 49/49/49 51/51/51 50/50/50
f 51/51/51 360/360/1 52/52/3
f 53/53/52 121/121/120 54/54/53
f 56/56/55 92/92/91 57/57/56
f 59/59/58 90/90/89 60/60/59
f 62/62/61 93/93/92 63/63/62
f 65/65/64 94/94/93 66/66/65
f 68/68/67 95/95/94 69/69/68
f 71/71/70 96/96/95 72/72/71
f 74/74/73 53/53/52 55/55/54
f 76/76/75 97/97/96 77/77/76
f 79/79/78 98/98/97 80/80/79
f 46/46/46 48/48/48 82/82/81
f 58/58/57 57/57/56 84/84/83
f 64/64/63 63/63/62 86/86/85
f 67/67/66 66/66/65 88/88/87
f 70/70/69 69/69/68 90/90/89
f 61/61/60 60/60/59 47/47/47
f 73/73/72 72/72/71 92/92/91
f 75/75/74 55/55/54 93/93/92
f 65/65/64 78/78/77 77/77/76
f 81/81/80 80/80/79 95/95/94
f 83/83/82 82/82/81 96/96/95
f 85/85/84 84/84/83 53/53/52
f 87/87/86 86/86/85 97/97/96
f 89/89/88 88/88/87 98/98/97
f 99/99/98 109/109/108 100/100/99
f 48/48/48 122/122/121 102/102/101
f 66/66/65 123/123/122 103/103/102
f 55/55/54 54/54/53 104/104/103
f 96/96/95 82/82/81 102/102/101
f 88/88/87 103/103/102 106/106/105
f 93/93/92 104/104/103 107/107/106
f 96/96/95 105/105/104 108/108/107
f 98/98/97 106/106/105 109/109/108
f 86/86/85 63/63/62 107/107/106
f 72/72/71 108/108/107 111/111/110
f 80/80/79 109/109/108 99/99/98
f 86/86/85 110/110/109 112/112/111
f 57/57/56 92/92/91 111/111/110
f 95/95/94 99/99/98 114/114/113
f 90/90/89 118/118/117 115/115/114
f 97/97/96 112/112/111 116/116/115
f 57/57/56 113/113/112 117/117/116
f 69/69/68 114/114/113 118/118/117
f 47/47/47 60/60/59 115/115/114
f 77/77/76 116/116/115 120/120/119
f 84/84/83 117/117/116 121/121/120
f 48/48/48 47/47/47 119/119/118
f 94/94/93 120/120/119 123/123/122
f 124/124/123 169/169/168 125/125/124
f 110/110/109 146/146/145 127/127/126
f 113/113/112 111/111/110 128/128/127
f 114/114/113 99/99/98 101/101/100
f 118/118/117 134/134/133 131/131/130
f 116/116/115 112/112/111 127/127/126
f 113/113/112 129/129/128 133/133/132
f 114/114/113 130/130/129 134/134/133
f 115/115/114 131/131/130 135/135/134
f 116/116/115 132/132/131 136/136/135
f 117/117/116 133/133/132 124/124/123
f 119/119/118 135/135/134 137/137/136
f 120/120/119 136/136/135 138/138/137
f 121/121/120 124/124/123 126/126/125
f 102/102/101 122/122/121 137/137/136
f 123/123/122 138/138/137 140/140/139
f 54/54/53 126/126/125 141/141/140
f 102/102/101 139/139/138 142/142/141
f 106/106/105 103/103/102 140/140/139
f 104/104/103 141/141/140 144/144/143
f 105/105/104 142/142/141 145/145/144
f 106/106/105 143/143/142 100/100/99
f 110/110/109 107/107/106 144/144/143
f 111/111/110 108/108/107 145/145/144
f 147/147/146 192/192/191 148/148/147
f 139/139/138 137/137/136 150/150/149
f 138/138/137 170/170/169 152/152/151
f 126/126/125 125/125/124 153/153/152
f 139/139/138 151/151/150 154/154/153
f 143/143/142 140/140/139 152/152/151
f 141/141/140 153/153/152 156/156/155
f 145/145/144 142/142/141 154/154/153
f 143/143/142 155/155/154 158/158/157
f 144/144/143 156/156/155 147/147/146
f 145/145/144 157/157/156 159/159/158
f 100/100/99 158/158/157 160/160/159
f 146/146/145 147/147/146 149/149/148
f 128/128/127 159/159/158 161/161/160
f 130/130/129 101/101/100 160/160/159
f 134/134/133 166/166/165 163/163/162
f 127/127/126 149/149/148 164/164/163
f 129/129/128 161/161/160 165/165/164
f 134/134/133 130/130/129 162/162/161
f 131/131/130 163/163/162 167/167/166
f 132/132/131 164/164/163 168/168/167
f 133/133/132 165/165/164 169/169/168
f 135/135/134 167/167/166 150/150/149
f 136/136/135 168/168/167 170/170/169
f 180/180/179 176/176/175 179/179/178
f 179/179/178 175/175/174 180/180/179
f 175/175/174 171/171/170 180/180/179
f 171/171/170 191/191/190 188/188/187
f 188/188/187 185/185/184 172/172/171
f 172/172/171 181/181/180 177/177/176
f 177/177/176 148/148/147 192/192/191
f 192/192/191 189/189/188 186/186/185
f 186/186/185 183/183/182 173/173/172
f 173/173/172 178/178/177 174/174/173
f 174/174/173 193/193/192 190/190/189
f 190/190/189 187/187/186 184/184/183
f 184/184/183 182/182/181 180/180/179
f 171/171/170 188/188/187 172/172/171
f 172/172/171 177/177/176 173/173/172
f 177/177/176 192/192/191 173/173/172
f 192/192/191 186/186/185 173/173/172
f 173/173/172 174/174/173 180/180/179
f 174/174/173 190/190/189 180/180/179
f 190/190/189 184/184/183 180/180/179
f 180/180/179 171/171/170 173/173/172
f 159/159/158 193/193/192 174/174/173
f 160/160/159 171/171/170 175/175/174
f 166/166/165 179/179/178 176/176/175
f 164/164/163 149/149/148 148/148/147
f 165/165/164 161/161/160 174/174/173
f 162/162/161 175/175/174 179/179/178
f 163/163/162 176/176/175 180/180/179
f 164/164/163 177/177/176 181/181/180
f 165/165/164 178/178/177 173/173/172
f 167/167/166 180/180/179 182/182/181
f 170/170/169 168/168/167 181/181/180
f 169/169/168 173/173/172 183/183/182
f 150/150/149 182/182/181 184/184/183
f 170/170/169 172/172/171 185/185/184
f 153/153/152 125/125/124 183/183/182
f 151/151/150 184/184/183 187/187/186
f 152/152/151 185/185/184 188/188/187
f 153/153/152 186/186/185 189/189/188
f 154/154/153 187/187/186 190/190/189
f 155/155/154 188/188/187 191/191/190
f 147/147/146 156/156/155 189/189/188
f 159/159/158 157/157/156 190/190/189
f 158/158/157 191/191/190 171/171/170
f 2/2/2 195/195/194 194/194/193
f 5/5/5 196/196/195 195/195/194
f 7/7/7 197/197/196 196/196/195
f 9/9/9 198/198/197 197/197/196
f 11/11/11 199/199/198 198/198/197
f 13/13/13 200/200/199 199/199/198
f 15/15/15 201/201/200 200/200/199
f 17/17/17 202/202/201 201/201/200
f 19/19/19 203/203/202 202/202/201
f 21/21/21 204/204/203 203/203/202
f 23/23/23 205/205/204 204/204/203
f 25/25/25 206/206/205 205/205/204
f 27/27/27 207/207/206 206/206/205
f 29/29/29 208/208/207 207/207/206
f 31/31/31 209/209/208 208/208/207
f 33/33/33 210/210/209 209/209/208
f 35/35/35 211/211/210 210/210/209
f 37/37/37 212/212/211 211/211/210
f 39/39/39 213/213/212 212/212/211
f 41/41/41 214/214/213 213/213/212
f 43/43/43 215/215/214 214/214/213
f 45/45/45 219/219/218 215/215/214
f 216/216/215 267/267/266 217/217/216
f 50/50/50 220/220/219 219/219/218
f 52/52/3 361/361/193 220/220/219
f 221/221/220 283/283/282 222/222/221
f 224/224/223 258/258/257 225/225/224
f 227/227/226 278/278/277 228/228/227
f 230/230/229 269/269/268 231/231/230
f 233/233/232 259/259/258 234/234/233
f 236/236/235 260/260/259 237/237/236
f 239/239/238 261/261/260 240/240/239
f 223/223/222 222/222/221 242/242/241
f 244/244/243 262/262/261 245/245/244
f 247/247/246 271/271/270 248/248/247
f 250/250/249 267/267/266 216/216/215
f 252/252/251 224/224/223 226/226/225
f 254/254/253 230/230/229 232/232/231
f 256/256/255 233/233/232 235/235/234
f 228/228/227 236/236/235 238/238/237
f 217/217/216 278/278/277 227/227/226
f 258/258/257 239/239/238 241/241/240
f 231/231/230 269/269/268 223/223/222
f 259/259/258 244/244/243 246/246/245
f 260/260/259 247/247/246 249/249/248
f 261/261/260 250/250/249 251/251/250
f 222/222/221 252/252/251 253/253/252
f 262/262/261 254/254/253 255/255/254
f 248/248/247 271/271/270 256/256/255
f 263/263/262 293/293/292 264/264/263
f 266/266/265 284/284/283 267/267/266
f 268/268/267 285/285/284 233/233/232
f 269/269/268 304/304/303 221/221/220
f 261/261/260 306/306/305 266/266/265
f 270/270/269 268/268/267 256/256/255
f 272/272/271 304/304/303 269/269/268
f 273/273/272 306/306/305 261/261/260
f 265/265/264 270/270/269 271/271/270
f 254/254/253 290/290/289 272/272/271
f 274/274/273 273/273/272 239/239/238
f 260/260/259 263/263/262 265/265/264
f 275/275/274 290/290/289 254/254/253
f 224/224/223 291/291/290 274/274/273
f 276/276/275 263/263/262 260/260/259
f 277/277/276 281/281/280 228/228/227
f 279/279/278 275/275/274 262/262/261
f 280/280/279 291/291/290 224/224/223
f 281/281/280 276/276/275 236/236/235
f 217/217/216 298/298/297 277/277/276
f 282/282/281 279/279/278 244/244/243
f 283/283/282 280/280/279 252/252/251
f 284/284/283 298/298/297 217/217/216
f 285/285/284 282/282/281 259/259/258
f 286/286/285 345/345/344 287/287/286
f 289/289/288 320/320/319 290/290/289
f 291/291/290 322/322/321 292/292/291
f 276/276/275 323/323/322 293/293/292
f 294/294/293 296/296/295 281/281/280
f 279/279/278 327/327/326 289/289/288
f 295/295/294 322/322/321 291/291/290
f 296/296/295 323/323/322 276/276/275
f 297/297/296 294/294/293 277/277/276
f 299/299/298 327/327/326 279/279/278
f 287/287/286 295/295/294 280/280/279
f 300/300/299 297/297/296 298/298/297
f 301/301/300 299/299/298 282/282/281
f 288/288/287 287/287/286 283/283/282
f 266/266/265 312/312/311 300/300/299
f 302/302/301 301/301/300 285/285/284
f 303/303/302 288/288/287 221/221/220
f 305/305/304 312/312/311 266/266/265
f 270/270/269 317/317/316 302/302/301
f 307/307/306 303/303/302 304/304/303
f 308/308/307 305/305/304 306/306/305
f 264/264/263 317/317/316 270/270/269
f 290/290/289 320/320/319 307/307/306
f 292/292/291 308/308/307 273/273/272
f 309/309/308 340/340/339 310/310/309
f 312/312/311 349/349/348 313/313/312
f 314/314/313 331/331/330 301/301/300
f 315/315/314 286/286/285 288/288/287
f 316/316/315 349/349/348 312/312/311
f 317/317/316 353/353/352 314/314/313
f 318/318/317 315/315/314 303/303/302
f 308/308/307 356/356/355 316/316/315
f 319/319/318 353/353/352 317/317/316
f 320/320/319 311/311/310 318/318/317
f 321/321/320 356/356/355 308/308/307
f 293/293/292 324/324/323 319/319/318
f 309/309/308 311/311/310 320/320/319
f 322/322/321 336/336/335 321/321/320
f 323/323/322 338/338/337 324/324/323
f 325/325/324 329/329/328 296/296/295
f 326/326/325 309/309/308 289/289/288
f 328/328/327 336/336/335 322/322/321
f 329/329/328 338/338/337 323/323/322
f 330/330/329 325/325/324 294/294/293
f 299/299/298 343/343/342 326/326/325
f 287/287/286 345/345/344 328/328/327
f 313/313/312 330/330/329 297/297/296
f 331/331/330 343/343/342 299/299/298
f 334/334/333 339/339/338 341/341/340
f 341/341/340 346/346/345 348/348/347
f 348/348/347 352/352/351 355/355/354
f 355/355/354 358/358/357 335/335/334
f 335/335/334 362/362/359 344/344/343
f 344/344/343 351/351/350 363/363/360
f 363/363/360 354/354/353 310/310/309
f 310/310/309 340/340/339 332/332/331
f 332/332/331 342/342/341 333/333/332
f 342/342/341 347/347/346 333/333/332
f 347/347/346 350/350/349 333/333/332
f 333/333/332 357/357/356 359/359/358
f 359/359/358 337/337/336 333/333/332
f 337/337/336 334/334/333 333/333/332
f 334/334/333 341/341/340 348/348/347
f 348/348/347 355/355/354 335/335/334
f 335/335/334 344/344/343 332/332/331
f 344/344/343 363/363/360 332/332/331
f 363/363/360 310/310/309 332/332/331
f 334/334/333 348/348/347 332/332/331
f 348/348/347 335/335/334 332/332/331
f 335/335/334 358/358/357 321/321/320
f 337/337/336 359/359/358 324/324/323
f 339/339/338 334/334/333 329/329/328
f 326/326/325 332/332/331 340/340/339
f 328/328/327 362/362/359 335/335/334
f 334/334/333 337/337/336 338/338/337
f 341/341/340 339/339/338 325/325/324
f 342/342/341 332/332/331 326/326/325
f 344/344/343 362/362/359 328/328/327
f 346/346/345 341/341/340 330/330/329
f 347/347/346 342/342/341 343/343/342
f 286/286/285 351/351/350 344/344/343
f 348/348/347 346/346/345 313/313/312
f 350/350/349 347/347/346 331/331/330
f 315/315/314 363/363/360 351/351/350
f 352/352/351 348/348/347 349/349/348
f 333/333/332 350/350/349 314/314/313
f 354/354/353 363/363/360 315/315/314
f 355/355/354 352/352/351 316/316/315
f 357/357/356 333/333/332 353/353/352
f 311/311/310 310/310/309 354/354/353
f 358/358/357 355/355/354 356/356/355
f 359/359/358 357/357/356 319/319/318
